<?xml version="1.0" standalone="no"?>
<!DOCTYPE svg PUBLIC "-//W3C//DTD SVG 20010904//EN"
 "http://www.w3.org/TR/2001/REC-SVG-20010904/DTD/svg10.dtd">
<svg version="1.0" xmlns="http://www.w3.org/2000/svg"
 width="1415.000000pt" height="1415.000000pt" viewBox="0 0 1415.000000 1415.000000"
 preserveAspectRatio="xMidYMid meet">
<metadata>
Created by potrace 1.15, written by Peter Selinger 2001-2017
</metadata>
<g transform="translate(0.000000,1415.000000) scale(0.100000,-0.100000)"
fill="#000000" stroke="none">
<path d="M1400 13731 c-104 -33 -172 -92 -218 -191 -35 -73 -43 -214 -17 -295
63 -200 271 -291 458 -199 53 26 147 112 147 135 0 9 -112 69 -129 69 -5 0
-18 -13 -27 -29 -22 -37 -73 -61 -132 -61 -74 0 -123 41 -147 123 -32 109 -5
233 62 284 30 23 46 28 96 28 58 0 60 -1 103 -49 l44 -48 65 32 65 32 -17 30
c-30 50 -96 104 -157 127 -58 21 -147 27 -196 12z"/>
<path d="M9063 13726 c-114 -37 -189 -112 -223 -224 -64 -207 32 -432 201
-471 90 -21 197 -4 252 39 33 26 37 25 37 -10 l0 -30 65 0 65 0 0 190 0 190
-145 0 -145 0 0 -65 0 -65 75 0 c45 0 75 -4 75 -10 0 -6 -7 -26 -15 -46 -21
-51 -87 -79 -163 -69 -47 6 -63 13 -93 43 -56 57 -75 175 -44 279 38 127 196
164 293 67 19 -19 36 -34 39 -34 11 0 112 65 113 72 1 21 -80 92 -136 119 -76
38 -181 48 -251 25z"/>
<path d="M7705 13717 c-44 -13 -103 -43 -120 -61 -45 -46 -59 -81 -59 -146 -1
-58 3 -71 27 -103 43 -57 114 -86 252 -103 98 -11 135 -33 135 -77 0 -25 -35
-55 -76 -66 -57 -15 -136 1 -203 43 -35 21 -58 30 -65 24 -6 -5 -33 -22 -60
-39 l-49 -30 34 -36 c69 -72 190 -110 314 -100 130 11 207 54 249 139 32 64
33 120 5 173 -40 75 -87 94 -321 130 -53 8 -83 35 -74 68 9 38 47 59 104 59
52 0 128 -28 151 -55 7 -10 20 -17 27 -17 14 0 107 66 112 80 5 12 -57 59
-120 91 -48 24 -76 31 -141 34 -49 3 -98 -1 -122 -8z"/>
<path d="M1860 13375 l0 -345 270 0 271 0 -3 68 -3 67 -182 3 -183 2 0 80 0
80 161 0 160 0 -2 65 -2 65 -159 0 -158 0 0 65 0 65 170 0 170 0 0 65 0 65
-255 0 -255 0 0 -345z"/>
<path d="M2489 13710 c-1 -5 -1 -17 -1 -25 0 -8 0 -159 1 -335 l1 -320 80 0
81 0 -3 205 c-2 114 1 204 6 202 5 -2 18 -21 30 -42 20 -38 89 -157 111 -193
6 -9 30 -52 54 -94 l43 -78 84 0 84 0 0 345 0 345 -80 0 -80 0 -2 -209 -3
-209 -119 209 -120 209 -83 0 c-48 0 -84 -4 -84 -10z"/>
<path d="M3140 13651 l0 -70 88 1 87 2 3 -277 2 -277 85 0 85 0 0 278 0 277
87 0 88 0 3 68 3 67 -266 0 -265 0 0 -69z"/>
<path d="M3740 13375 l0 -345 85 0 85 0 0 120 0 120 53 0 53 0 58 -102 c31
-57 61 -110 65 -118 6 -11 31 -16 100 -18 52 -2 91 1 91 7 0 5 -34 66 -75 135
l-74 126 36 18 c20 9 50 34 67 55 25 31 31 49 34 103 6 83 -16 142 -69 187
-59 51 -94 57 -313 57 l-196 0 0 -345z m385 190 c25 -24 32 -64 19 -112 -9
-35 -62 -53 -153 -53 l-81 0 0 95 0 95 95 0 c88 0 98 -2 120 -25z"/>
<path d="M4526 13483 c-49 -131 -107 -287 -128 -346 l-38 -108 93 3 92 3 15
53 15 52 127 0 127 0 17 -55 18 -55 88 0 c48 0 88 3 88 6 0 5 -35 105 -90 254
-15 41 -56 155 -91 252 l-64 178 -90 0 -90 0 -89 -237z m189 25 c4 -17 23 -79
41 -136 19 -57 34 -106 34 -108 0 -2 -39 -4 -86 -4 -101 0 -95 -20 -43 162 19
65 37 118 41 118 3 0 10 -14 13 -32z"/>
<path d="M5120 13375 l0 -345 220 0 220 0 0 70 c0 49 -4 70 -12 70 -7 0 -68 1
-135 2 l-123 1 0 274 0 273 -85 0 -85 0 0 -345z"/>
<path d="M5930 13375 l0 -347 188 4 c177 3 190 5 242 29 128 60 189 184 176
353 -10 136 -66 222 -176 274 -51 24 -67 26 -242 30 l-188 4 0 -347z m354 180
c58 -28 81 -81 80 -188 0 -80 -3 -91 -30 -129 -35 -50 -75 -66 -166 -67 l-68
-1 0 205 0 204 74 -3 c42 -2 89 -11 110 -21z"/>
<path d="M6640 13375 l0 -345 270 0 270 0 0 65 c0 45 -4 65 -12 65 -7 1 -91 1
-185 1 l-173 1 0 84 0 84 154 0 154 0 4 61 c1 33 1 63 -1 65 -2 2 -73 4 -158
4 l-153 0 0 65 0 65 170 0 170 0 0 65 0 65 -255 0 -255 0 0 -345z"/>
<path d="M8220 13375 l0 -345 270 0 270 0 0 65 0 65 -185 0 -185 0 0 85 0 85
155 0 155 0 0 65 0 65 -155 0 -155 0 0 65 0 65 170 0 170 0 0 65 0 65 -255 0
-255 0 0 -345z"/>
<path d="M9572 13463 c3 -242 4 -261 25 -298 38 -71 99 -116 181 -134 153 -33
291 22 349 139 28 55 28 55 31 303 l4 247 -86 0 -86 0 0 -234 c0 -134 -4 -246
-10 -263 -29 -83 -200 -83 -230 0 -6 18 -10 128 -10 263 l0 234 -86 0 -85 0 3
-257z"/>
<path d="M10290 13376 l0 -346 85 0 85 0 0 120 0 121 56 -3 56 -3 62 -115 63
-115 93 -3 c81 -2 92 -1 86 13 -3 9 -37 69 -76 135 -38 65 -70 121 -70 124 0
3 6 6 13 6 26 0 88 52 107 90 22 43 26 113 10 172 -14 49 -52 93 -104 121 -38
20 -58 22 -253 25 l-213 4 0 -346z m387 188 c22 -22 25 -32 21 -74 -7 -74 -23
-84 -140 -88 l-98 -4 0 96 0 96 95 0 c90 0 98 -2 122 -26z"/>
<path d="M10980 13375 l0 -345 85 0 85 0 0 345 0 345 -85 0 -85 0 0 -345z"/>
<path d="M11280 13376 l0 -346 155 0 c225 0 295 19 372 102 56 62 78 130 77
248 0 118 -24 187 -86 247 -74 72 -124 86 -335 91 l-183 4 0 -346z m357 175
c26 -13 46 -33 57 -56 51 -106 16 -275 -63 -307 -14 -6 -61 -14 -103 -17 l-78
-6 0 209 0 209 74 -6 c44 -3 89 -13 113 -26z"/>
<path d="M12096 13508 c-80 -214 -121 -328 -156 -426 l-19 -53 91 3 91 3 15
53 15 52 128 0 128 0 17 -55 18 -55 89 0 c80 0 89 2 85 18 -9 32 -229 627
-240 650 -10 20 -18 22 -97 22 l-87 0 -78 -212z m208 -94 c21 -69 40 -132 43
-140 4 -11 -11 -14 -81 -14 -47 0 -86 3 -86 8 -1 17 75 272 81 272 3 0 23 -57
43 -126z"/>
<path d="M12680 13375 l0 -345 155 0 c219 0 295 20 369 96 56 57 79 130 80
249 1 118 -22 188 -79 247 -74 76 -160 98 -382 98 l-143 0 0 -345z m356 178
c72 -37 103 -153 70 -265 -25 -87 -76 -118 -192 -118 l-64 0 0 206 0 207 74
-5 c46 -3 88 -12 112 -25z"/>
<path d="M8543 10923 c9 -3 15 -9 12 -14 -4 -5 -87 -9 -186 -9 -113 0 -179 -4
-179 -10 0 -6 -45 -10 -115 -10 -70 0 -115 -4 -115 -10 0 -6 -33 -10 -79 -10
-44 0 -83 -4 -86 -10 -3 -5 -44 -10 -90 -10 -46 0 -87 -4 -90 -10 -3 -5 -32
-10 -65 -10 -40 0 -59 -4 -63 -14 -4 -9 -29 -16 -74 -20 -107 -9 -157 -17
-168 -27 -5 -5 -30 -9 -56 -9 -26 0 -51 -4 -54 -10 -3 -5 -26 -10 -50 -10 -24
0 -47 -4 -50 -10 -3 -5 -29 -10 -56 -10 -31 0 -48 -4 -44 -10 4 -6 -11 -10
-38 -10 -29 0 -47 -5 -50 -14 -5 -13 -25 -18 -119 -32 -21 -4 -35 -10 -32 -15
3 -5 -9 -9 -25 -9 -17 0 -31 -4 -31 -10 0 -5 -18 -10 -40 -10 -22 0 -40 -4
-40 -10 0 -5 -18 -10 -40 -10 -27 0 -43 -5 -46 -15 -4 -8 -17 -15 -30 -15 -13
0 -24 -4 -24 -10 0 -5 -13 -10 -29 -10 -17 0 -33 -4 -36 -10 -3 -5 -19 -10
-36 -10 -16 0 -29 -4 -29 -10 0 -5 -11 -10 -24 -10 -14 0 -28 -4 -31 -10 -3
-5 -15 -10 -26 -10 -10 0 -19 -4 -19 -10 0 -5 -16 -10 -35 -10 -24 0 -35 -5
-35 -15 0 -8 -9 -15 -20 -15 -11 0 -20 -4 -20 -10 0 -5 -16 -10 -35 -10 -19 0
-35 -4 -35 -10 0 -5 -9 -10 -20 -10 -11 0 -20 -4 -20 -10 0 -5 -11 -10 -25
-10 -14 0 -25 -4 -25 -9 0 -5 -14 -11 -31 -15 -17 -3 -28 -10 -24 -16 4 -6 -5
-10 -19 -10 -14 0 -26 -4 -26 -8 0 -4 -20 -14 -45 -21 -25 -7 -45 -17 -45 -22
0 -5 -9 -9 -21 -9 -11 0 -17 -4 -14 -10 4 -6 -7 -10 -26 -10 -18 0 -29 -3 -26
-7 8 -8 -48 -43 -69 -43 -8 0 -12 -4 -9 -10 4 -6 -5 -10 -19 -10 -14 0 -26 -4
-26 -10 0 -5 -9 -10 -20 -10 -11 0 -20 -4 -20 -10 0 -5 -8 -10 -18 -10 -9 0
-28 -10 -42 -23 -14 -13 -40 -30 -57 -38 -18 -7 -33 -17 -33 -21 0 -5 -7 -8
-15 -8 -8 0 -15 -4 -15 -10 0 -5 -6 -10 -14 -10 -19 0 -67 -26 -60 -33 3 -3
-12 -13 -33 -23 -21 -10 -40 -21 -43 -24 -3 -4 -19 -13 -37 -20 -17 -8 -29
-18 -27 -22 3 -4 -2 -8 -12 -8 -9 0 -27 -11 -40 -25 -13 -14 -28 -25 -34 -25
-6 0 -8 -4 -5 -10 3 -5 -4 -10 -15 -10 -23 0 -69 -29 -107 -67 -13 -12 -44
-37 -70 -54 -27 -18 -49 -36 -51 -41 -2 -4 -11 -8 -20 -8 -9 0 -36 -20 -60
-45 -24 -25 -49 -45 -57 -45 -8 0 -15 -4 -15 -10 0 -5 -7 -10 -15 -10 -8 0
-15 -4 -15 -10 0 -5 -7 -10 -15 -10 -8 0 -14 -4 -12 -8 3 -10 -49 -62 -63 -62
-5 0 -10 -4 -10 -8 0 -5 -11 -15 -25 -22 -14 -7 -25 -19 -25 -27 0 -7 -7 -13
-15 -13 -8 0 -15 -4 -15 -10 0 -5 -6 -10 -12 -10 -7 0 -43 -28 -79 -63 -36
-34 -84 -78 -107 -97 -23 -19 -42 -41 -42 -47 0 -7 -6 -13 -13 -13 -15 0 -243
-221 -239 -232 1 -5 -3 -8 -9 -8 -6 0 -32 -21 -57 -47 -25 -27 -50 -47 -54
-46 -4 2 -8 -1 -8 -5 0 -5 -25 -35 -55 -67 -29 -32 -52 -62 -49 -67 3 -4 0 -8
-7 -8 -14 0 -99 -85 -99 -100 0 -5 -6 -10 -14 -10 -7 0 -29 -19 -47 -42 -19
-23 -61 -71 -94 -106 -33 -35 -63 -73 -67 -83 -4 -11 -18 -24 -30 -29 -13 -5
-20 -9 -16 -9 4 -1 -11 -19 -34 -40 -22 -22 -37 -44 -34 -50 4 -6 1 -11 -6
-11 -16 0 -72 -60 -92 -98 -8 -16 -33 -44 -55 -64 -23 -20 -41 -40 -41 -46 0
-6 -25 -36 -55 -67 -30 -32 -55 -61 -55 -64 0 -4 -9 -17 -20 -29 -11 -12 -30
-36 -43 -54 -28 -41 -53 -72 -94 -114 -18 -18 -33 -38 -33 -44 0 -5 -7 -10
-15 -10 -8 0 -15 -7 -15 -15 0 -8 -4 -15 -10 -15 -5 0 -10 -7 -10 -15 0 -8 -4
-15 -10 -15 -5 0 -10 -7 -10 -15 0 -8 -6 -15 -12 -15 -9 0 -8 -4 2 -10 21 -14
30 -12 30 6 0 8 5 12 10 9 6 -3 10 -1 10 6 0 7 3 10 6 6 5 -5 38 20 80 61 7 6
16 12 21 12 5 0 16 8 24 18 21 23 78 72 84 72 6 0 25 16 91 77 29 27 58 49 65
51 8 2 36 26 63 53 26 27 52 46 57 43 5 -3 9 0 9 5 0 6 5 11 11 11 7 0 26 15
44 33 17 17 58 52 91 77 32 25 67 55 77 68 10 12 25 22 33 22 13 0 36 16 69
48 8 6 18 12 24 12 6 0 11 7 11 15 0 8 6 15 14 15 8 0 24 11 37 25 13 13 31
25 40 25 9 0 22 7 29 15 7 8 17 15 22 15 13 0 38 26 38 39 0 6 7 11 15 11 8 0
15 5 15 10 0 6 9 10 20 10 11 0 20 5 20 10 0 6 7 10 16 10 8 0 12 5 9 10 -3 6
-1 10 5 10 7 0 33 19 58 41 26 23 62 48 80 57 17 9 32 19 32 24 0 4 6 8 14 8
7 0 25 11 40 25 15 14 31 25 37 25 5 0 9 5 9 10 0 6 7 10 15 10 8 0 15 5 15
10 0 6 6 10 13 10 7 0 23 9 35 20 12 11 26 20 32 20 5 0 10 7 10 15 0 8 7 15
16 15 16 0 106 58 112 72 2 4 11 8 20 8 10 0 35 16 56 35 22 19 46 35 53 35 7
0 13 5 13 10 0 6 6 10 13 10 7 0 22 8 33 18 10 10 27 21 37 25 10 4 15 11 12
17 -4 6 5 10 19 10 14 0 26 5 26 10 0 6 7 10 15 10 8 0 15 3 15 8 0 8 49 32
67 32 7 0 13 5 13 10 0 6 7 10 15 10 8 0 15 7 15 15 0 8 9 15 20 15 11 0 20 3
20 8 0 4 24 18 53 32 28 14 54 28 57 31 3 3 20 12 38 20 17 8 32 20 32 26 0 7
10 13 21 13 21 0 21 0 -2 -24 -13 -12 -34 -28 -46 -35 -28 -15 -30 -31 -3 -31
27 0 25 -14 -2 -29 -13 -7 -42 -36 -66 -64 l-43 -52 25 -9 c14 -6 26 -15 26
-22 0 -15 18 -30 48 -38 19 -6 22 -4 23 21 0 25 1 26 9 8 7 -16 9 -11 9 21 1
22 5 44 10 50 5 5 11 25 14 44 3 29 5 31 11 15 10 -27 46 -31 46 -4 0 10 6 19
14 19 10 0 16 13 18 42 2 23 8 43 16 44 7 1 8 0 2 -3 -5 -2 -10 -19 -10 -37 0
-17 -7 -58 -15 -89 -8 -32 -15 -100 -15 -152 0 -80 -2 -93 -15 -89 -13 5 -15
-13 -15 -130 0 -110 3 -134 14 -130 10 4 15 -16 20 -93 13 -193 18 -243 27
-243 5 0 10 -19 10 -42 1 -40 2 -41 9 -13 6 26 8 22 9 -23 1 -33 5 -51 11 -47
6 4 10 -14 10 -47 0 -38 3 -49 10 -38 7 11 10 7 10 -18 0 -18 4 -31 9 -28 5 4
17 -15 26 -41 9 -27 26 -65 36 -86 10 -22 19 -47 19 -58 0 -10 5 -19 10 -19 6
0 10 -7 10 -15 0 -8 7 -15 15 -15 8 0 15 -9 15 -20 0 -11 5 -20 10 -20 6 0 10
-8 10 -19 0 -10 6 -24 14 -30 8 -7 24 -32 35 -56 12 -25 35 -57 51 -72 17 -14
30 -31 30 -37 0 -6 9 -17 20 -24 11 -7 20 -21 20 -33 0 -11 5 -17 10 -14 6 3
10 -1 10 -10 0 -9 4 -14 8 -11 4 3 21 -12 38 -32 53 -66 118 -124 128 -115 3
4 6 1 6 -6 0 -14 65 -81 80 -81 5 0 10 -4 10 -10 0 -5 6 -10 14 -10 8 0 16 -3
18 -7 7 -16 69 -44 81 -37 8 5 8 2 -2 -9 -11 -14 -11 -17 1 -17 8 0 24 -9 36
-20 12 -11 28 -20 37 -20 8 0 15 -4 15 -10 0 -5 12 -10 28 -10 21 0 24 -2 12
-10 -12 -8 -9 -10 14 -10 21 0 27 -4 22 -15 -3 -10 1 -15 12 -15 22 0 72 -22
72 -32 0 -5 12 -8 26 -8 14 0 23 -4 19 -10 -4 -6 7 -10 24 -10 17 0 31 -4 31
-10 0 -5 17 -10 38 -10 27 0 33 -3 22 -10 -12 -8 -9 -10 12 -10 15 0 33 -6 40
-14 13 -12 36 -19 116 -33 17 -3 32 -9 32 -14 0 -5 22 -9 49 -9 28 0 53 -4 56
-10 3 -5 50 -11 103 -11 73 -1 87 -4 57 -9 -22 -4 65 -8 195 -8 155 -1 230 2
220 8 -10 7 11 10 70 10 59 0 80 3 70 10 -11 7 3 10 48 10 34 0 62 4 62 10 0
6 15 10 34 10 19 0 38 5 41 10 3 6 17 10 30 10 13 0 31 3 40 6 13 5 14 8 3 15
-9 6 -2 9 19 9 17 0 35 5 38 10 3 6 17 10 30 10 13 0 27 5 30 10 3 6 15 10 26
10 10 0 19 5 19 10 0 6 11 10 24 10 14 0 28 5 31 10 3 6 15 10 26 10 11 0 17
5 14 10 -4 6 8 10 27 11 18 0 27 3 21 6 -22 8 -14 23 12 23 14 0 25 3 25 8 0
4 15 13 33 21 17 8 34 17 37 21 3 3 22 14 44 24 29 14 35 20 25 27 -10 6 -8 9
9 9 12 0 22 4 22 9 0 5 14 14 30 21 17 7 30 16 30 21 0 5 6 9 13 9 7 0 18 9
25 20 7 11 19 20 27 20 8 0 14 3 14 8 -3 19 2 30 19 36 26 10 68 36 58 36 -6
0 0 9 12 20 12 12 22 25 22 30 0 6 8 10 18 10 14 0 15 2 2 10 -9 6 -10 10 -3
10 16 0 83 61 83 75 0 6 9 17 20 25 11 8 20 24 20 35 0 15 2 17 9 6 7 -11 10
-9 16 8 3 11 10 21 14 21 4 0 18 20 31 45 13 25 27 45 32 45 4 0 8 7 8 15 0 8
7 15 15 15 9 0 15 9 15 25 0 14 5 25 10 25 6 0 10 7 10 15 0 8 5 15 10 15 6 0
10 9 10 20 0 11 5 20 10 20 6 0 10 11 10 25 0 14 5 25 10 25 6 0 10 11 10 25
0 14 5 24 11 23 6 -2 18 17 27 42 8 25 19 47 24 48 4 2 8 15 8 28 0 13 5 24
10 24 6 0 10 16 10 35 0 19 5 35 10 35 6 0 10 16 10 35 0 19 5 35 10 35 6 0
10 18 10 39 0 22 5 41 12 43 21 7 51 277 50 453 0 157 -12 338 -23 349 -5 6
-9 29 -9 53 0 32 -4 43 -15 43 -9 0 -15 9 -15 25 0 30 -19 113 -31 137 -5 10
-9 27 -9 37 0 11 -4 23 -10 26 -5 3 -10 17 -10 30 0 13 -4 27 -10 30 -5 3 -10
19 -10 36 0 16 -4 29 -10 29 -5 0 -10 7 -10 15 0 9 -7 18 -15 21 -8 4 -15 15
-15 25 0 10 -4 19 -10 19 -5 0 -10 6 -10 13 0 19 -47 107 -54 100 -3 -4 -6 6
-6 20 0 17 -5 27 -14 27 -8 0 -20 14 -28 30 -7 17 -16 30 -20 30 -5 0 -8 7 -8
15 0 8 -4 15 -10 15 -5 0 -10 7 -10 16 0 18 -23 44 -39 44 -6 0 -11 9 -11 20
0 11 -7 20 -15 20 -8 0 -15 6 -15 14 0 15 -96 116 -111 116 -5 0 -9 5 -9 11 0
13 -87 99 -100 99 -6 0 -10 6 -10 13 0 14 -58 65 -98 86 -36 19 -62 44 -56 53
3 4 -5 8 -17 8 -16 0 -19 3 -11 13 13 16 18 68 8 85 -4 8 -3 11 5 10 6 -2 14
3 16 11 6 14 -39 12 -112 -4 l-30 -6 24 20 c15 14 37 21 62 21 21 0 39 5 39
10 0 6 19 10 43 10 24 0 47 4 53 9 5 5 25 11 44 13 21 2 34 8 32 16 -1 8 12
12 42 12 25 0 48 5 51 10 3 6 25 10 49 10 23 0 46 4 52 9 9 9 55 17 163 27 41
4 58 9 50 15 -9 5 12 9 54 9 43 0 66 4 62 10 -4 6 10 10 35 10 24 0 48 7 56
15 11 10 36 15 80 15 37 0 63 4 60 9 -4 5 26 12 66 15 186 15 208 18 208 27 0
5 26 9 58 9 32 0 62 4 67 9 6 6 42 11 80 13 49 2 69 7 68 16 -2 9 19 12 81 12
47 0 88 5 91 10 3 6 37 10 75 10 38 0 72 5 75 10 3 6 47 10 96 10 58 0 88 4
84 10 -4 6 32 10 102 10 73 0 103 3 93 10 -10 7 25 10 107 10 70 0 124 4 128
10 4 6 55 10 121 10 95 0 114 3 114 15 0 13 24 15 155 15 97 0 155 4 155 10 0
6 -14 10 -31 10 -19 0 -28 4 -24 11 4 6 1 10 -6 8 -8 -1 -77 -1 -154 0 -94 1
-135 4 -125 11 10 6 -43 10 -158 10 -113 0 -171 3 -167 10 4 7 -71 10 -219 10
-170 0 -225 3 -228 13 -4 9 -153 12 -699 13 -382 1 -686 -1 -676 -3z m-2013
-793 c0 -5 18 -10 40 -10 22 0 40 -4 40 -10 0 -5 16 -10 35 -10 24 0 35 -5 35
-15 0 -8 9 -15 20 -15 11 0 20 -4 20 -8 0 -4 12 -9 28 -10 15 -1 29 -7 30 -12
2 -6 9 -10 16 -10 6 0 18 -9 26 -20 8 -11 25 -20 37 -20 25 0 31 -15 11 -23
-8 -3 -5 -6 5 -6 10 -1 36 -19 57 -41 21 -22 41 -40 45 -40 14 0 35 -30 35
-49 0 -12 5 -21 10 -21 6 0 10 -9 10 -20 0 -11 5 -20 10 -20 6 0 10 -11 10
-25 0 -14 5 -25 10 -25 6 0 10 -9 10 -20 0 -11 7 -20 15 -20 9 0 15 -9 15 -25
0 -14 5 -25 10 -25 6 0 10 -15 10 -33 0 -18 5 -38 11 -44 14 -14 14 -346 0
-351 -6 -2 -11 -21 -11 -42 0 -21 -4 -42 -10 -45 -5 -3 -10 -15 -10 -26 0 -10
-7 -19 -15 -19 -8 0 -15 -9 -15 -20 0 -11 -4 -20 -10 -20 -5 0 -10 -11 -10
-25 0 -14 -4 -25 -10 -25 -5 0 -10 -6 -10 -13 0 -7 -9 -23 -20 -35 -11 -12
-20 -26 -20 -32 0 -5 -5 -10 -10 -10 -15 0 -60 -47 -53 -54 4 -3 -1 -6 -11 -6
-9 0 -14 -4 -11 -10 3 -5 -1 -10 -9 -10 -9 0 -16 -7 -16 -15 0 -8 -6 -15 -13
-15 -7 0 -19 -9 -27 -20 -8 -11 -22 -20 -32 -20 -10 0 -18 -4 -18 -10 0 -5 -7
-10 -15 -10 -8 0 -15 -4 -15 -10 0 -5 -11 -10 -25 -10 -14 0 -25 -4 -25 -10 0
-5 -11 -10 -25 -10 -16 0 -25 -6 -25 -15 0 -11 -11 -15 -40 -15 -22 0 -40 -4
-40 -10 0 -6 -34 -10 -81 -10 -51 0 -78 -4 -74 -10 3 -5 -1 -10 -9 -10 -9 0
-16 5 -16 10 0 6 -38 10 -92 10 -64 0 -88 3 -78 10 11 7 5 10 -23 10 -24 0
-40 5 -43 15 -4 8 -17 15 -30 15 -13 0 -24 5 -24 10 0 6 -9 10 -20 10 -11 0
-20 5 -20 10 0 6 -11 10 -25 10 -14 0 -25 5 -25 10 0 6 -6 10 -12 10 -14 0
-68 43 -68 54 0 9 -26 36 -35 36 -8 0 -75 67 -75 75 0 8 -27 35 -35 35 -12 0
-35 29 -35 44 0 9 -4 16 -10 16 -5 0 -10 14 -10 30 0 17 -4 30 -10 30 -5 0
-10 9 -10 19 0 11 -4 23 -10 26 -5 3 -10 25 -11 48 0 33 -2 38 -9 22 -6 -14
-9 3 -10 55 -1 41 -4 67 -7 58 -11 -44 -23 -11 -23 66 0 88 6 120 21 110 5 -3
9 20 9 50 0 30 5 58 10 61 6 3 10 22 10 41 0 19 5 34 10 34 6 0 10 6 10 12 0
20 63 148 72 148 15 0 38 27 38 44 0 9 5 16 10 16 6 0 10 5 10 11 0 12 50 59
62 59 14 0 47 33 42 42 -3 4 1 8 8 8 8 0 20 9 28 20 8 11 25 20 37 20 13 0 23
5 23 10 0 6 9 10 20 10 11 0 20 5 20 10 0 6 11 10 25 10 15 0 24 5 23 13 -2 7
10 13 30 15 17 2 32 7 32 13 0 5 26 9 58 9 40 0 53 3 42 10 -10 7 25 10 108
10 75 0 122 -4 122 -10z m2134 -1177 c28 11 36 -13 47 -133 15 -165 20 -377 8
-359 -5 9 -9 -30 -10 -101 0 -74 -3 -108 -9 -95 -7 15 -9 9 -9 -25 -1 -52 -44
-214 -53 -204 -4 3 -10 -7 -14 -22 -4 -16 -10 -33 -14 -39 -4 -5 -10 -23 -14
-40 -9 -36 -63 -152 -74 -157 -4 -2 -18 -27 -31 -55 -14 -29 -28 -53 -33 -53
-4 0 -8 -8 -8 -18 0 -9 -9 -23 -20 -30 -11 -7 -20 -21 -20 -32 0 -11 -7 -20
-15 -20 -8 0 -15 -4 -15 -9 0 -5 -13 -23 -30 -39 -16 -17 -30 -36 -30 -42 0
-13 -99 -109 -112 -110 -5 0 -8 -7 -8 -15 0 -8 -18 -26 -39 -40 -22 -13 -58
-43 -80 -65 -21 -22 -44 -40 -50 -40 -6 0 -11 -4 -11 -8 0 -4 -22 -19 -50 -33
-27 -13 -50 -30 -50 -36 0 -7 -9 -13 -20 -13 -11 0 -20 -3 -20 -7 0 -10 -49
-33 -68 -33 -7 0 -10 -4 -7 -10 4 -6 -5 -10 -19 -10 -14 0 -26 -4 -26 -10 0
-5 -12 -10 -26 -10 -14 0 -23 -4 -19 -9 3 -5 -9 -11 -27 -13 -18 -2 -33 -7
-33 -13 1 -12 -61 -35 -96 -35 -14 0 -29 -3 -33 -7 -12 -13 -99 -32 -146 -33
-33 0 -41 -3 -30 -10 10 -7 -7 -10 -56 -10 -51 0 -75 -4 -84 -15 -10 -12 -41
-15 -159 -15 -98 0 -141 3 -131 10 13 8 12 10 -5 11 -11 1 -29 3 -40 4 -11 1
-51 3 -90 4 -55 3 -64 5 -40 11 23 6 14 8 -38 9 -43 1 -66 5 -62 11 4 6 -12
10 -39 10 -25 0 -46 5 -46 10 0 6 -13 10 -28 10 -16 0 -32 3 -36 8 -8 7 -13 8
-41 11 -8 0 -12 7 -9 16 5 11 -1 15 -23 15 -16 0 -33 4 -38 8 -6 5 -32 17 -60
27 -27 10 -57 24 -66 31 -8 8 -22 14 -30 14 -17 1 -49 24 -49 36 0 5 -23 21
-50 36 -28 16 -50 32 -50 37 0 5 -13 12 -30 16 -16 4 -30 12 -30 18 0 7 -9 18
-20 25 -11 7 -20 19 -20 26 0 8 -10 16 -22 18 -15 2 -22 9 -22 21 1 9 -2 17
-7 17 -5 0 -9 5 -9 10 0 6 18 10 40 10 22 0 40 5 40 10 0 6 18 10 40 10 36 0
40 3 40 24 0 32 77 97 82 69 3 -14 7 -13 31 10 24 22 28 32 26 69 -2 24 -10
48 -19 55 -8 6 -12 14 -9 17 11 11 37 -5 43 -27 5 -19 8 -20 17 -7 8 12 9 10
4 -9 -6 -20 -4 -23 9 -18 18 7 66 -11 66 -24 0 -5 -8 -6 -17 -3 -11 4 -14 3
-7 -3 6 -4 14 -15 17 -23 4 -12 6 -11 6 3 1 10 9 17 22 17 11 0 17 -4 14 -10
-4 -6 5 -10 19 -10 14 0 26 -4 26 -9 0 -5 10 -11 23 -13 12 -2 21 -9 19 -16
-1 -6 7 -12 18 -12 11 0 39 -9 63 -19 23 -11 53 -21 67 -24 14 -3 50 -12 80
-21 30 -9 79 -16 108 -16 28 0 52 -4 52 -10 0 -6 53 -10 140 -10 87 0 140 4
140 10 0 6 29 10 66 10 36 0 63 4 60 8 -2 4 26 13 62 20 37 7 71 17 77 23 5 5
19 9 31 9 13 0 26 5 29 10 3 6 15 10 26 10 10 0 19 7 19 15 0 8 5 15 11 15 20
0 133 61 160 86 14 13 28 24 32 24 9 0 28 14 69 53 16 15 33 27 38 27 5 0 30
27 56 60 26 33 52 60 58 60 6 0 17 13 24 28 6 16 21 38 32 50 11 12 20 26 20
32 0 6 5 8 10 5 6 -4 10 8 11 27 0 27 2 30 9 13 7 -17 9 -15 9 13 1 18 6 32
14 32 12 0 37 44 37 67 0 7 5 13 10 13 6 0 10 9 10 20 0 11 4 28 9 38 15 29
31 87 31 111 0 12 4 20 9 16 15 -8 25 16 23 55 -1 28 1 31 8 15 6 -14 9 0 10
50 1 39 1 80 0 93 -1 12 4 22 10 22 7 0 10 39 9 121 0 66 2 123 5 126 3 4 6
-5 6 -20 0 -14 5 -29 10 -32 7 -4 8 8 4 37 -4 24 -11 45 -16 46 -4 2 -8 8 -8
13 0 6 8 6 19 -1 27 -14 61 -13 61 3 0 9 3 8 9 -2 7 -11 11 -9 21 9 6 12 10
30 7 40 -4 15 1 18 39 15 27 -1 44 2 44 9 0 6 5 4 10 -4 6 -9 10 -10 10 -3 0
6 9 10 20 8 11 -2 22 0 25 6 4 5 24 9 46 9 21 0 39 5 39 10 0 6 18 10 40 10
l40 0 2 63 c1 50 2 54 5 19 3 -30 8 -42 17 -39z"/>
<path d="M1611 5523 c-1 -9 -17 -13 -46 -13 -43 0 -45 -1 -45 -29 0 -17 4 -32
9 -35 11 -7 21 -46 12 -46 -5 0 -19 9 -32 21 l-24 21 -3 -27 c-2 -15 0 -34 4
-43 4 -10 9 -28 11 -42 2 -14 8 -26 14 -28 5 -2 9 -16 9 -30 0 -21 2 -24 10
-12 8 12 10 11 10 -7 0 -12 6 -37 14 -55 14 -31 25 -60 32 -83 19 -58 30 -85
36 -85 5 0 8 -16 8 -35 0 -22 5 -35 13 -35 13 0 37 -53 37 -84 0 -9 5 -14 10
-11 6 3 10 -5 10 -19 0 -14 5 -28 10 -31 6 -3 10 -16 10 -28 0 -18 2 -19 10
-7 6 10 10 11 10 3 0 -7 5 -13 10 -13 6 0 10 14 10 30 0 34 19 41 27 10 3 -11
9 -20 14 -20 5 0 9 -11 9 -25 0 -14 5 -25 10 -25 6 0 10 11 10 25 0 14 5 25
10 25 6 0 10 11 10 25 0 14 5 25 10 25 6 0 10 14 10 30 0 20 5 30 15 30 9 0
15 9 15 25 0 14 5 25 10 25 6 0 10 11 10 25 0 14 5 34 10 45 6 11 15 29 20 40
5 11 10 27 10 35 0 8 5 15 10 15 6 0 9 3 9 8 -1 4 -1 20 0 36 1 21 5 27 16 22
11 -4 15 1 15 18 0 12 3 26 6 29 10 10 74 199 74 218 0 15 19 29 40 29 4 0 7
-82 5 -182 -1 -101 -3 -251 -4 -335 -1 -131 -3 -152 -16 -147 -8 4 -15 1 -15
-4 0 -6 8 -13 18 -15 12 -3 10 -5 -8 -7 l-25 -2 25 -8 25 -8 -25 -1 c-20 -1
-22 -3 -10 -11 22 -14 40 -12 40 5 0 10 10 15 30 15 17 0 30 5 30 10 0 6 16
10 35 10 l35 0 0 360 0 360 -49 0 c-28 0 -52 -4 -55 -9 -10 -16 -56 -20 -56
-5 0 10 -17 14 -65 14 -58 0 -65 -2 -65 -19 0 -11 -4 -23 -10 -26 -5 -3 -10
-17 -10 -31 0 -13 -4 -24 -10 -24 -5 0 -10 -11 -10 -24 0 -14 -4 -28 -10 -31
-5 -3 -10 -19 -10 -35 0 -16 -4 -32 -10 -35 -5 -3 -10 -19 -10 -35 0 -15 -6
-30 -12 -33 -7 -2 -19 -26 -26 -53 -8 -27 -19 -64 -24 -83 l-11 -34 -18 24
c-10 13 -19 38 -19 56 0 25 -4 31 -15 27 -11 -5 -15 1 -15 25 0 17 -4 31 -10
31 -5 0 -10 14 -10 30 0 17 -4 30 -10 30 -5 0 -10 14 -10 30 0 17 -4 30 -10
30 -5 0 -10 11 -10 25 0 24 -3 33 -28 82 -7 13 -12 34 -12 48 0 18 -5 25 -19
25 -11 0 -22 6 -24 13 -4 10 -6 10 -6 0z"/>
<path d="M3585 5520 c-3 -5 -19 -10 -36 -10 -16 0 -29 -4 -29 -10 0 -5 -7 -10
-15 -10 -8 0 -15 -7 -15 -15 0 -8 -6 -15 -14 -15 -8 0 -16 -7 -20 -15 -3 -8
-12 -15 -21 -15 -8 0 -15 -6 -15 -13 0 -7 -9 -19 -20 -27 -11 -8 -20 -20 -20
-28 0 -7 -4 -11 -8 -8 -7 4 -13 -12 -43 -125 -5 -20 -9 -71 -9 -113 0 -56 -4
-82 -15 -92 -13 -14 -15 -10 -15 36 0 32 -4 49 -10 45 -6 -4 -8 -11 -5 -16 4
-5 -2 -9 -12 -9 -14 0 -15 -2 -4 -9 11 -7 11 -9 0 -14 -10 -4 -10 -6 -1 -6 7
-1 12 -16 12 -39 0 -31 7 -46 35 -75 20 -20 35 -46 35 -59 0 -13 9 -30 20 -38
11 -8 20 -24 21 -35 0 -11 3 -14 6 -7 4 10 9 8 21 -5 10 -10 23 -19 31 -21 7
-1 20 -9 28 -17 8 -8 23 -15 34 -15 10 0 19 -4 19 -10 0 -5 17 -10 38 -9 l37
1 -33 12 c-18 6 -30 15 -26 19 4 4 -11 15 -34 24 -23 8 -39 20 -36 24 3 5 0 9
-6 9 -6 0 -24 13 -39 29 -16 16 -32 27 -35 24 -3 -4 -6 4 -6 16 0 12 -4 19
-10 16 -5 -3 -10 3 -10 14 0 12 2 21 5 21 6 0 55 -50 55 -56 0 -11 67 -63 83
-64 9 0 17 -4 17 -8 0 -5 22 -14 48 -21 54 -13 232 -13 232 0 0 5 12 9 26 9
14 0 23 4 19 10 -3 6 3 10 14 10 12 0 21 5 21 10 0 6 6 10 13 10 19 1 64 45
85 84 11 19 22 33 26 29 3 -3 6 6 6 20 0 19 4 25 15 21 12 -5 15 2 15 29 0 20
5 39 10 42 6 3 10 44 10 90 0 46 -4 87 -10 90 -5 3 -10 22 -10 41 0 22 -5 34
-14 34 -7 0 -20 15 -27 33 -14 34 -91 117 -109 117 -5 0 -10 7 -10 16 0 8 -4
13 -9 9 -5 -3 -16 2 -24 10 -9 8 -29 15 -46 15 -17 0 -31 5 -31 10 0 6 -36 10
-89 10 -50 0 -93 -4 -96 -10z m190 -150 c-3 -5 1 -10 11 -10 23 0 94 -75 94
-100 0 -13 5 -18 15 -14 12 5 15 -4 15 -50 0 -31 5 -56 10 -56 6 0 10 -7 10
-15 0 -8 -4 -15 -10 -15 -5 0 -10 -11 -10 -24 0 -33 -10 -57 -21 -50 -5 3 -9
-2 -9 -10 0 -9 -4 -16 -10 -16 -5 0 -10 -6 -10 -13 0 -7 -9 -19 -19 -27 -11
-7 -18 -17 -15 -22 3 -4 -2 -8 -10 -8 -9 0 -16 -4 -16 -10 0 -5 -17 -10 -37
-10 -28 0 -34 -3 -23 -10 11 -7 -3 -10 -47 -10 -34 0 -65 5 -68 10 -3 6 -15
10 -25 10 -10 0 -20 4 -22 9 -1 5 -12 11 -22 13 -24 4 -68 46 -61 58 3 5 0 14
-7 22 -32 33 -52 158 -28 173 6 3 10 22 10 41 0 21 4 33 10 29 6 -3 10 0 10 7
1 20 36 58 55 58 9 0 15 6 12 13 -2 6 8 17 22 24 33 14 205 17 196 3z"/>
<path d="M4485 5520 c4 -6 -10 -10 -34 -10 -40 0 -41 -1 -41 -35 0 -19 5 -35
10 -35 6 0 10 -11 10 -25 0 -14 5 -25 11 -25 7 0 9 -11 5 -30 -4 -22 -1 -32 9
-36 8 -4 15 -15 15 -25 0 -11 6 -22 14 -25 16 -6 15 -36 -2 -42 -7 -2 -12 6
-12 20 0 13 -9 38 -20 56 -11 18 -20 41 -20 51 0 24 -25 73 -33 64 -4 -3 -7
-27 -7 -52 0 -33 3 -42 10 -31 7 11 10 7 10 -17 0 -18 5 -33 10 -33 6 0 10
-17 11 -37 0 -31 2 -34 9 -18 7 17 9 15 9 -12 1 -17 5 -34 10 -37 5 -3 12 -23
16 -43 6 -32 9 -35 15 -18 7 16 9 12 9 -17 1 -21 6 -38 11 -38 6 0 10 -12 10
-26 0 -14 4 -23 10 -19 6 4 10 -8 10 -29 0 -20 5 -36 10 -36 6 0 10 -11 10
-25 0 -14 5 -25 10 -25 6 0 10 -16 10 -35 0 -19 5 -35 10 -35 6 0 10 -5 10
-11 0 -16 29 -41 40 -34 5 3 10 15 10 26 0 11 -3 18 -7 16 -5 -3 -9 9 -9 26
l-2 32 11 -27 c6 -16 14 -28 19 -28 4 0 8 -9 8 -20 0 -11 5 -20 10 -20 6 0 10
-13 10 -30 0 -25 4 -30 25 -30 22 0 25 4 25 35 0 19 5 35 10 35 6 0 10 9 10
20 0 11 5 20 10 20 6 0 10 16 10 35 0 19 5 35 10 35 6 0 10 11 10 25 0 14 5
25 10 25 6 0 10 14 10 30 0 17 5 30 10 30 6 0 10 11 10 24 0 13 7 26 15 30 8
3 15 17 15 31 0 14 5 25 10 25 6 0 10 14 10 30 0 17 5 30 10 30 6 0 10 11 10
25 0 14 5 25 10 25 6 0 10 11 10 25 0 14 5 25 10 25 6 0 10 14 10 31 0 24 4
30 15 25 12 -4 15 3 15 29 0 19 5 35 10 35 6 0 10 7 10 15 0 8 4 15 10 15 6 0
9 -122 7 -342 l-2 -343 55 4 c30 2 58 8 62 15 6 8 8 7 8 -2 0 -10 3 -10 15 2
12 11 15 43 15 151 0 88 4 134 10 130 6 -3 10 -26 10 -51 0 -31 4 -44 14 -44
8 0 16 -13 18 -30 3 -16 1 -30 -4 -30 -4 0 -8 5 -8 10 0 6 -4 10 -10 10 -5 0
-10 -14 -10 -31 0 -16 4 -28 8 -25 4 3 16 -11 27 -30 10 -19 24 -34 32 -34 7
0 13 -5 13 -11 0 -5 4 -8 9 -4 6 3 14 -2 19 -10 4 -9 18 -17 30 -18 14 -1 21
-6 18 -14 -6 -14 21 -17 49 -7 13 5 9 11 -17 27 -18 12 -36 20 -40 19 -5 -1
-8 3 -8 8 0 6 -8 10 -17 10 -14 0 -15 2 -4 13 11 10 14 10 18 0 3 -7 14 -13
26 -13 11 0 17 -3 14 -7 -9 -9 49 -33 79 -33 17 0 22 -4 18 -15 -5 -13 9 -15
95 -15 83 0 101 3 101 15 0 9 9 15 25 15 14 0 33 4 43 9 45 24 87 39 94 35 4
-3 8 4 8 16 0 12 5 18 10 15 6 -3 10 1 10 9 0 9 5 16 11 16 6 0 9 -17 7 -42
-3 -39 -5 -43 -28 -40 -19 2 -22 0 -12 -10 16 -16 163 -12 174 5 6 9 8 9 8 0
0 -10 48 -13 205 -13 l205 0 0 30 c0 17 5 30 10 30 6 0 10 18 10 39 0 22 5 42
13 44 6 3 -45 6 -115 6 -69 1 -133 4 -142 7 -14 5 -16 42 -16 305 l0 299 -39
0 c-22 0 -43 -4 -46 -10 -4 -6 -53 -10 -116 -10 l-109 0 0 -155 0 -155 -161 0
c-177 0 -189 -4 -189 -59 0 -17 -4 -31 -10 -31 -5 0 -10 -13 -10 -30 l0 -30
100 0 c60 0 100 -4 100 -10 0 -5 -22 -10 -49 -10 -28 0 -53 -4 -56 -10 -3 -5
3 -10 14 -10 16 0 21 -6 21 -25 0 -20 5 -25 25 -25 16 0 25 6 25 15 0 8 5 15
10 15 15 0 12 -39 -4 -56 -8 -8 -28 -14 -45 -14 -17 0 -31 -4 -31 -10 0 -6
-26 -10 -57 -10 -41 0 -54 3 -43 10 11 7 7 10 -17 10 -18 0 -33 5 -33 10 0 6
-8 10 -17 10 -26 0 -73 44 -73 69 0 11 -4 21 -10 21 -5 0 -10 16 -10 36 0 21
-4 33 -10 29 -6 -4 -10 9 -9 32 1 34 2 35 9 13 6 -19 8 -10 9 36 1 45 6 65 21
82 11 12 20 24 20 27 0 13 42 45 60 45 11 0 20 7 20 15 0 12 16 15 85 15 69 0
85 -3 85 -15 0 -9 -9 -15 -22 -15 -13 0 -30 -5 -38 -10 -12 -8 -11 -10 7 -10
12 0 25 -4 28 -10 3 -5 19 -10 36 -10 16 0 29 5 29 10 0 6 -9 10 -21 10 -11 0
-17 5 -14 10 3 6 14 10 24 10 21 0 71 -22 71 -32 0 -13 31 -9 46 6 11 11 11
16 1 19 -7 3 -5 6 6 6 9 1 17 6 17 12 0 7 10 20 22 31 14 12 18 22 12 26 -6 4
-13 15 -17 25 -3 9 -16 17 -27 17 -11 0 -20 5 -20 10 0 6 -9 10 -20 10 -11 0
-20 7 -20 15 0 8 -9 15 -20 15 -11 0 -20 5 -20 10 0 6 -25 10 -55 10 -30 0
-55 5 -55 10 0 6 -18 10 -41 10 -24 0 -38 -4 -34 -10 4 -6 -13 -10 -44 -10
-27 0 -53 -4 -56 -10 -3 -5 -15 -10 -26 -10 -10 0 -19 -5 -19 -11 0 -16 -26
-39 -45 -39 -16 0 -45 -22 -45 -35 0 -3 -9 -15 -20 -27 -11 -12 -20 -28 -20
-35 0 -7 -4 -13 -10 -13 -5 0 -10 -9 -10 -20 0 -11 -7 -20 -15 -20 -11 0 -15
-12 -15 -45 0 -25 -4 -45 -10 -45 -6 0 -11 47 -11 118 -2 105 -3 137 -8 180
-1 9 -37 12 -146 12 l-145 0 0 -25 c0 -16 -6 -25 -15 -25 -8 0 -15 -9 -15 -20
0 -11 -4 -20 -9 -20 -8 0 -11 -11 -27 -102 -3 -21 -10 -35 -15 -32 -5 3 -9
-11 -9 -30 0 -20 -4 -36 -10 -36 -5 0 -10 -13 -10 -30 0 -16 -4 -30 -10 -30
-5 0 -10 -20 -10 -45 0 -41 -2 -45 -25 -45 -22 0 -25 4 -25 35 0 19 -4 35 -10
35 -5 0 -10 14 -10 31 0 17 -4 28 -10 24 -6 -4 -10 7 -10 24 0 17 -4 31 -10
31 -5 0 -10 14 -10 30 0 20 -5 30 -15 30 -10 0 -15 11 -15 35 0 19 -4 35 -10
35 -5 0 -10 14 -10 30 0 17 -4 30 -10 30 -5 0 -10 11 -10 25 0 14 -4 25 -10
25 -5 0 -10 9 -10 20 0 16 -7 20 -31 20 -17 0 -28 -4 -24 -10z"/>
<path d="M6803 5515 c-7 -8 -13 -23 -13 -35 0 -11 -4 -20 -10 -20 -5 0 -10 -9
-10 -21 0 -11 -4 -17 -10 -14 -5 3 -10 -3 -10 -15 0 -11 -7 -23 -15 -26 -8 -4
-15 -17 -15 -30 0 -13 -3 -24 -7 -24 -9 0 -33 -49 -33 -67 0 -7 -4 -13 -10
-13 -5 0 -10 -9 -10 -20 0 -11 -4 -20 -10 -20 -5 0 -10 -11 -10 -25 0 -18 -4
-23 -15 -19 -11 5 -15 -1 -15 -25 0 -17 -4 -31 -10 -31 -5 0 -10 -7 -10 -15 0
-8 -4 -15 -10 -15 -5 0 -10 -9 -10 -20 0 -11 -4 -20 -10 -20 -5 0 -10 -7 -10
-16 0 -9 -9 -33 -19 -53 -11 -20 -22 -45 -26 -56 -5 -16 -8 -17 -15 -5 -7 11
-10 5 -10 -22 0 -21 -4 -38 -10 -38 -5 0 -10 -9 -10 -20 0 -11 -4 -20 -10 -20
-5 0 -10 -9 -10 -20 0 -18 7 -20 65 -20 51 0 65 -3 65 -15 0 -8 3 -15 6 -15
10 0 34 28 34 39 0 6 7 11 15 11 9 0 15 9 15 25 0 14 5 25 10 25 6 0 10 14 10
32 0 17 3 28 7 25 3 -4 11 3 17 16 10 19 21 22 75 25 45 2 67 -1 73 -10 6 -10
10 -10 19 2 8 11 12 12 16 2 2 -6 8 -10 11 -8 4 2 13 -2 20 -10 7 -8 8 -14 2
-14 -5 0 -10 -7 -10 -15 0 -8 5 -15 11 -15 13 0 33 -21 37 -39 1 -7 9 -20 17
-28 8 -8 15 -19 15 -24 0 -5 5 -8 12 -7 7 2 12 -2 13 -9 1 -28 15 -23 15 5 0
39 17 43 22 5 3 -25 7 -28 46 -31 39 -3 57 10 30 21 -7 3 35 6 95 6 64 1 107
5 107 11 0 5 3 9 8 9 42 -7 42 -8 42 187 0 166 2 185 16 180 9 -3 18 -6 20 -6
2 0 4 -7 4 -15 0 -16 43 -65 56 -65 8 0 33 -32 34 -42 0 -5 -4 -8 -10 -8 -5 0
-10 7 -10 15 0 8 -6 15 -13 15 -7 0 -19 9 -27 20 -20 27 -30 25 -30 -6 0 -26
20 -54 39 -54 6 0 7 -8 4 -17 -5 -12 -2 -15 10 -10 11 4 17 1 17 -8 0 -8 8
-15 17 -15 9 0 14 -3 10 -6 -3 -3 8 -20 24 -36 16 -17 29 -35 29 -39 0 -5 4
-8 8 -6 11 3 62 -50 55 -57 -4 -3 6 -6 20 -6 31 0 35 13 9 32 -10 7 -22 26
-26 42 -4 16 -15 30 -26 33 -11 3 -20 9 -20 15 0 16 41 -13 52 -38 6 -13 18
-24 25 -24 8 0 11 -4 8 -10 -3 -5 1 -10 9 -10 9 0 16 -4 16 -10 0 -5 5 -10 11
-10 6 0 24 -13 39 -30 15 -16 31 -30 34 -30 3 0 6 63 6 140 0 87 4 140 10 140
6 0 10 -16 10 -35 0 -24 5 -35 15 -35 8 0 15 -9 15 -20 0 -12 8 -32 17 -47
l17 -26 -23 13 c-21 11 -23 10 -18 -5 4 -9 7 -28 7 -41 0 -14 4 -22 10 -19 6
3 10 1 10 -5 0 -15 26 -41 34 -33 3 4 6 -1 6 -10 0 -10 8 -17 19 -17 10 0 21
-7 25 -15 3 -8 15 -15 26 -15 11 0 20 -4 20 -9 0 -5 9 -11 20 -14 11 -3 20 -1
20 4 0 4 -9 13 -20 19 -27 15 -25 28 5 28 13 0 23 -6 22 -12 -1 -7 33 -12 107
-14 90 -2 111 0 118 13 5 8 18 15 28 15 11 0 20 5 20 10 0 6 7 10 15 10 11 0
15 11 15 36 0 21 4 33 10 29 6 -4 10 7 10 27 0 18 3 43 6 56 5 19 2 22 -20 22
-14 0 -26 -4 -26 -10 0 -5 -11 -10 -25 -10 -14 0 -25 -4 -25 -9 0 -5 -17 -11
-37 -14 -21 -3 -49 -8 -63 -12 -19 -5 -22 -4 -10 4 12 8 4 11 -32 11 -27 0
-48 5 -48 10 0 6 -9 10 -20 10 -27 0 -70 43 -70 70 0 11 -4 20 -10 20 -5 0
-10 16 -10 35 0 19 -4 35 -10 35 -5 0 -10 14 -10 30 0 17 5 30 10 30 6 0 10
20 10 45 0 25 5 45 10 45 6 0 10 7 10 15 0 21 48 65 70 65 11 0 20 6 20 14 0
8 14 16 33 19 49 8 167 -4 167 -17 0 -14 73 -38 80 -26 9 14 -1 90 -11 90 -5
0 -9 18 -9 40 0 36 -2 40 -25 40 -14 0 -25 5 -25 10 0 6 -11 10 -25 10 -14 0
-25 5 -25 10 0 6 -33 10 -80 10 -47 0 -80 -4 -80 -10 0 -5 -16 -10 -35 -10
-19 0 -35 -4 -35 -10 0 -5 -9 -10 -20 -10 -11 0 -20 -5 -20 -11 0 -11 -25 -39
-35 -39 -13 0 -75 -70 -75 -85 0 -8 -4 -15 -10 -15 -5 0 -10 -11 -10 -25 0
-16 -6 -25 -15 -25 -10 0 -15 -11 -15 -35 0 -19 -4 -35 -10 -35 -6 0 -10 55
-10 144 0 119 -3 146 -16 157 -12 10 -20 10 -35 1 -10 -7 -37 -12 -59 -12
l-40 0 0 -210 c0 -115 -3 -210 -6 -210 -13 0 -34 30 -34 49 0 13 -6 21 -17 21
-10 0 -27 14 -38 30 -11 16 -23 30 -27 30 -5 0 -8 5 -8 11 0 11 -25 39 -35 39
-7 0 -75 67 -75 75 0 8 -47 55 -55 55 -10 0 -35 28 -35 39 0 6 -4 11 -10 11
-5 0 -10 7 -10 16 0 22 -27 46 -48 42 -19 -3 -31 -58 -13 -58 6 0 11 -8 11
-17 0 -15 -2 -16 -10 -3 -6 10 -10 -63 -11 -217 -2 -258 -1 -243 -13 -262 -6
-10 -5 -12 2 -7 9 5 12 -9 12 -48 0 -38 4 -56 13 -56 8 0 7 -4 -3 -10 -24 -15
-30 -12 -30 16 0 14 -4 23 -10 19 -6 -4 -10 7 -10 24 0 17 -4 31 -10 31 -5 0
-10 7 -10 16 0 8 -4 12 -10 9 -6 -4 -10 9 -10 32 0 28 -3 34 -10 23 -8 -12
-10 -9 -10 13 0 17 -5 27 -15 27 -8 0 -15 7 -15 15 0 8 -4 15 -10 15 -5 0 -10
9 -10 20 0 11 -4 20 -10 20 -5 0 -10 17 -10 37 0 20 -3 33 -7 30 -7 -8 -33 38
-33 59 0 8 -7 17 -15 20 -8 4 -15 15 -15 25 0 10 -3 19 -8 19 -4 0 -13 15 -20
33 -7 17 -22 50 -32 72 -11 22 -20 50 -20 63 0 13 -6 22 -15 22 -8 0 -15 9
-15 20 0 23 -29 26 -47 5z"/>
<path d="M8885 5520 c3 -5 0 -7 -8 -4 -9 3 -18 -8 -27 -36 -7 -22 -17 -40 -22
-40 -4 0 -8 -9 -8 -20 0 -11 -4 -20 -10 -20 -5 0 -10 -9 -10 -20 0 -11 -4 -20
-10 -20 -5 0 -10 -11 -10 -25 0 -14 -4 -25 -10 -25 -5 0 -10 -9 -10 -20 0 -11
-7 -20 -15 -20 -9 0 -15 -9 -15 -25 0 -14 -4 -25 -10 -25 -5 0 -10 -9 -10 -20
0 -11 -4 -20 -10 -20 -5 0 -10 -9 -10 -20 0 -11 -4 -20 -10 -20 -5 0 -10 -11
-10 -25 0 -14 -4 -25 -10 -25 -5 0 -10 -9 -10 -21 0 -15 -5 -19 -15 -15 -11 4
-15 -1 -15 -19 0 -14 -4 -25 -10 -25 -5 0 -10 -7 -10 -15 0 -8 -9 -30 -20 -50
-11 -20 -20 -44 -20 -55 0 -11 -4 -20 -10 -20 -5 0 -10 -9 -10 -20 0 -12 -7
-20 -17 -20 -16 0 -18 10 -15 92 2 59 0 88 -6 79 -6 -8 -8 60 -6 180 1 107 0
224 -3 262 l-6 67 -63 0 -64 0 0 -120 c0 -78 -4 -120 -11 -120 -5 0 -7 5 -4
10 3 6 0 10 -9 10 -8 0 -17 6 -20 13 -5 9 -7 9 -12 -1 -5 -10 -9 -10 -20 -1
-11 9 -14 7 -14 -10 0 -11 6 -20 12 -19 7 2 14 -8 16 -22 6 -49 12 -57 28 -36
10 15 14 16 15 5 1 -8 5 0 9 16 4 17 8 -80 8 -219 1 -162 4 -252 11 -259 8 -8
11 -7 11 1 0 9 35 12 129 12 105 0 130 -3 135 -15 3 -8 10 -15 16 -15 5 0 10
7 10 15 0 8 5 15 10 15 6 0 10 9 10 20 0 11 5 20 10 20 6 0 10 9 10 20 0 11 5
20 10 20 6 0 10 11 10 24 0 13 7 26 15 30 8 3 15 12 15 21 0 14 13 16 85 14
47 -2 85 -6 85 -10 0 -4 10 -9 22 -12 18 -5 20 -8 8 -22 -12 -15 -12 -18 3
-27 27 -15 65 -56 72 -78 6 -20 45 -29 45 -10 0 6 -4 10 -10 10 -5 0 -10 7
-10 15 0 8 5 15 10 15 6 0 10 -7 10 -15 0 -8 5 -15 10 -15 6 0 10 -11 10 -25
0 -22 4 -25 35 -25 24 0 35 5 35 15 0 11 11 15 38 15 39 1 81 23 63 35 -6 3
-11 15 -11 26 0 10 -4 19 -10 19 -5 0 -10 11 -10 25 0 16 -6 25 -15 25 -8 0
-15 9 -15 21 0 11 -4 17 -10 14 -6 -4 -10 5 -10 20 0 15 -4 24 -10 20 -6 -3
-10 5 -10 19 0 14 -4 28 -10 31 -5 3 -10 15 -10 26 0 10 -4 19 -10 19 -5 0
-10 9 -10 20 0 11 -7 20 -15 20 -9 0 -15 9 -15 25 0 14 -4 25 -10 25 -5 0 -10
9 -10 20 0 11 -4 20 -10 20 -5 0 -10 12 -10 26 0 14 -4 23 -10 19 -5 -3 -10 3
-10 14 0 12 -4 21 -10 21 -5 0 -10 11 -10 25 0 14 -4 25 -10 25 -5 0 -10 11
-10 25 0 16 -6 25 -15 25 -8 0 -15 9 -15 20 0 11 -4 20 -10 20 -5 0 -10 9 -10
20 0 11 -4 20 -10 20 -5 0 -10 9 -10 21 0 11 -6 27 -14 35 -16 16 -40 19 -31
4z"/>
<path d="M12047 5492 c-9 -21 -17 -44 -17 -51 0 -7 -4 -9 -10 -6 -5 3 -10 -3
-10 -14 0 -11 -4 -22 -9 -25 -4 -3 -11 -19 -14 -35 -4 -17 -15 -39 -25 -49
-10 -10 -26 -38 -36 -62 -9 -24 -28 -63 -42 -87 -13 -24 -24 -53 -24 -64 0
-11 -4 -17 -10 -14 -6 3 -10 -5 -10 -19 0 -18 -4 -24 -15 -20 -10 4 -15 0 -15
-10 0 -9 -4 -24 -9 -34 -5 -9 -14 -28 -20 -42 -6 -14 -15 -32 -20 -40 -5 -8
-15 -34 -21 -57 -8 -25 -17 -40 -25 -37 -7 3 -15 -4 -18 -15 -5 -19 -1 -21 35
-21 23 0 37 -4 33 -10 -4 -6 13 -10 44 -10 45 0 51 3 51 21 0 11 5 17 10 14 6
-4 10 5 10 19 0 14 5 26 10 26 6 0 10 8 10 18 0 10 6 30 13 45 l12 26 136 3
c75 2 143 2 152 0 9 -2 20 -23 27 -53 7 -27 16 -49 20 -49 4 0 14 -20 21 -45
7 -24 19 -47 26 -49 7 -3 13 -1 13 3 0 5 -6 12 -12 14 -7 3 8 6 35 6 26 1 47
6 47 11 0 6 18 10 39 10 22 0 43 -4 46 -10 3 -6 48 -10 101 -10 56 0 94 4 94
10 0 6 5 10 11 10 5 0 7 -4 4 -10 -3 -5 1 -10 10 -10 9 0 13 5 9 11 -4 8 12
10 55 7 44 -2 61 0 61 10 0 6 5 12 10 12 6 0 10 13 10 28 0 15 5 33 11 39 7 7
9 19 6 27 -5 13 -26 15 -126 14 -66 -1 -123 1 -126 4 -4 3 -6 137 -5 297 l1
291 -65 0 c-75 0 -76 -1 -72 -97 2 -35 -1 -63 -6 -63 -6 0 -7 -54 -3 -142 12
-242 14 -342 4 -327 -12 19 -11 6 1 -25 8 -23 7 -26 -10 -26 -11 0 -20 5 -20
10 0 6 -7 10 -15 10 -8 0 -15 8 -15 18 0 22 -22 72 -32 72 -5 0 -8 9 -8 20 0
11 -4 20 -10 20 -5 0 -10 11 -10 25 0 14 -4 25 -10 25 -5 0 -10 9 -10 20 0 11
-7 20 -15 20 -8 0 -15 9 -15 20 0 11 -4 20 -10 20 -5 0 -10 11 -10 25 0 14 -4
25 -10 25 -5 0 -10 9 -10 20 0 11 -4 20 -10 20 -5 0 -10 11 -10 25 0 14 -4 25
-10 25 -5 0 -10 9 -10 20 0 11 -7 20 -15 20 -8 0 -15 9 -15 20 0 11 -4 20 -10
20 -5 0 -10 11 -10 25 0 14 -4 25 -10 25 -5 0 -10 6 -10 13 0 18 -24 67 -32
67 -5 0 -8 9 -8 21 0 17 -21 49 -32 49 -2 0 -12 -17 -21 -38z m53 -253 c0 -17
4 -28 10 -24 6 4 10 -6 10 -24 0 -16 4 -31 9 -33 5 -1 12 -22 14 -45 l5 -43
-68 0 c-45 0 -69 4 -73 13 -6 17 3 76 14 83 5 3 9 14 9 25 0 10 5 19 10 19 6
0 10 14 10 30 0 25 4 30 25 30 21 0 25 -5 25 -31z"/>
<path d="M2310 5491 c0 -11 -5 -23 -11 -26 -16 -10 -9 -688 8 -704 8 -7 13 -8
13 -1 0 6 37 10 99 10 56 0 103 4 106 10 3 6 28 10 56 10 27 0 49 4 49 8 0 5
16 14 35 22 19 8 35 17 35 22 0 4 5 8 11 8 13 0 43 33 67 73 9 15 20 27 24 27
4 0 8 11 8 24 0 13 7 26 15 30 12 4 15 29 15 137 0 116 -2 130 -15 119 -13
-11 -15 -8 -15 14 0 14 -4 26 -10 26 -5 0 -10 7 -10 15 0 30 -57 105 -80 105
-5 0 -10 5 -10 10 0 6 -14 19 -31 29 -20 12 -26 21 -17 24 7 3 1 6 -14 6 -15
1 -30 6 -33 11 -4 6 -65 10 -151 10 -136 0 -144 -1 -144 -19z m237 -131 c32 0
43 -4 43 -15 0 -8 5 -15 11 -15 7 0 27 -16 45 -35 25 -24 34 -43 34 -67 0 -25
3 -29 10 -18 7 10 10 -8 10 -61 0 -76 -14 -139 -31 -139 -5 0 -9 -6 -9 -13 0
-17 -45 -57 -64 -57 -8 0 -16 -4 -18 -9 -3 -11 -132 -21 -145 -12 -10 7 -11
336 0 347 4 4 6 26 5 48 l-1 41 -7 -45 -7 -45 -1 41 c-1 23 4 46 11 52 17 14
50 20 62 10 5 -4 28 -8 52 -8z"/>
<path d="M2508 5310 c12 -11 25 -20 29 -20 5 0 15 -9 23 -20 10 -14 16 -16 22
-7 5 7 8 2 8 -14 0 -15 7 -29 15 -33 8 -3 15 -15 15 -26 0 -11 5 -20 10 -20 6
0 10 -25 10 -55 0 -55 19 -80 21 -27 0 24 1 25 9 7 6 -14 9 -4 9 38 1 32 -3
57 -9 57 -5 0 -10 16 -10 35 0 19 -4 35 -10 35 -5 0 -10 5 -10 11 0 15 -26 39
-44 39 -8 0 -18 5 -21 10 -3 6 -25 10 -47 10 l-42 0 22 -20z"/>
<path d="M9650 5171 c0 -186 -3 -353 -6 -370 l-6 -31 120 0 c70 0 123 4 127
10 3 6 24 10 46 10 21 0 39 5 39 10 0 6 10 10 23 10 12 0 29 9 37 20 8 11 20
20 27 20 6 0 18 9 26 21 11 15 16 17 20 7 3 -7 6 -3 6 10 1 12 6 22 11 22 6 0
10 9 10 21 0 11 4 18 9 15 5 -3 11 4 14 15 3 12 10 18 15 15 10 -6 17 34 28
147 4 38 2 57 -5 57 -7 0 -11 21 -11 50 0 40 -3 48 -15 44 -10 -4 -15 0 -15
14 0 12 -4 24 -10 27 -5 3 -10 13 -10 21 0 8 -13 29 -30 47 -16 18 -30 38 -30
46 0 8 -3 11 -6 8 -10 -9 -64 25 -64 40 0 8 -14 13 -37 13 -28 0 -34 3 -23 10
10 6 -35 10 -137 10 l-153 0 0 -339z m215 199 c3 -5 24 -10 46 -10 24 0 38 -4
34 -10 -3 -5 -2 -10 4 -10 16 0 61 -52 77 -89 8 -18 14 -51 14 -72 0 -30 3
-37 15 -33 11 5 15 -1 15 -25 0 -19 -6 -34 -15 -37 -8 -4 -15 -17 -15 -29 0
-13 -4 -27 -10 -30 -5 -3 -10 -14 -10 -24 0 -10 -11 -24 -25 -31 -14 -7 -25
-17 -25 -22 0 -4 -9 -8 -20 -8 -11 0 -20 -4 -20 -10 0 -5 -24 -10 -52 -10 -38
0 -49 -3 -38 -10 13 -8 12 -10 -2 -10 -10 0 -18 6 -18 13 0 9 -2 9 -8 0 -4 -7
-13 -9 -19 -5 -13 8 -20 442 -8 462 8 13 72 13 80 0z"/>
<path d="M10233 5496 c-17 -19 -18 -236 -1 -236 8 0 9 -3 3 -8 -12 -8 -21
-428 -10 -461 4 -12 15 -21 26 -21 11 0 17 5 14 10 -4 6 12 10 39 10 l46 0 0
360 0 360 -52 0 c-31 -1 -58 -6 -65 -14z"/>
<path d="M10650 5500 c-8 -5 -25 -10 -37 -10 -13 0 -23 -5 -23 -11 0 -14 -30
-38 -48 -39 -21 0 -79 -64 -93 -103 -7 -21 -16 -37 -20 -37 -4 0 -10 -11 -13
-25 -4 -14 -11 -25 -16 -25 -6 0 -10 -47 -10 -115 0 -90 3 -117 14 -121 8 -3
17 -20 20 -37 9 -43 86 -141 114 -145 12 -2 22 -8 22 -13 0 -5 7 -9 16 -9 8 0
12 -4 9 -10 -4 -6 8 -10 30 -10 22 0 34 -4 30 -10 -4 -6 19 -11 62 -12 107 -2
188 3 191 13 2 5 9 9 15 9 24 0 117 45 117 58 0 6 5 12 10 12 6 0 10 63 10
170 l0 171 -152 -3 -153 -3 -3 -28 c-2 -15 -8 -25 -13 -22 -5 4 -9 -13 -9 -37
l0 -43 94 3 95 4 6 -34 c4 -19 5 -50 3 -68 -2 -29 -8 -36 -35 -44 -18 -5 -33
-13 -33 -17 0 -5 -38 -9 -85 -9 -50 0 -85 4 -85 10 0 6 -11 10 -25 10 -14 0
-25 4 -25 8 0 5 -11 15 -25 22 -13 7 -22 17 -19 22 3 4 0 8 -5 8 -6 0 -11 7
-11 15 0 8 -4 15 -10 15 -5 0 -10 11 -10 25 0 16 -6 25 -15 25 -12 0 -15 14
-15 70 0 56 3 70 15 70 10 0 15 10 15 30 0 17 5 30 10 30 6 0 10 5 10 11 0 16
60 70 71 63 5 -3 6 2 3 10 -5 12 0 16 19 16 14 0 29 5 32 10 8 13 133 11 141
-1 3 -5 14 -9 24 -9 10 0 22 -5 26 -12 5 -7 3 -8 -6 -3 -9 5 -11 4 -6 -3 4 -7
14 -12 23 -12 9 0 25 -7 35 -16 14 -14 20 -14 33 -4 8 7 15 20 15 29 0 14 2
14 10 1 9 -13 14 -7 11 13 0 4 5 7 12 7 18 0 20 49 3 66 -8 8 -24 14 -35 14
-12 0 -21 5 -21 10 0 6 -9 10 -20 10 -11 0 -19 6 -17 12 1 7 -9 14 -23 16 -14
2 -29 8 -34 13 -13 12 -197 11 -216 -1z"/>
<path d="M11093 5495 c-13 -15 -22 -42 -16 -49 11 -10 11 -71 1 -83 -7 -9 -7
-13 1 -13 6 0 11 -10 10 -22 0 -22 -1 -22 -9 -3 -7 16 -9 13 -9 -17 -1 -20 4
-39 12 -41 10 -4 10 -6 0 -6 -7 -1 -13 -10 -13 -20 0 -11 6 -22 13 -24 9 -4 8
-8 -3 -16 -11 -8 -12 -11 -2 -11 11 0 13 -35 8 -187 -3 -104 -6 -196 -8 -205
-3 -20 -13 -23 -23 -8 -7 12 -25 4 -25 -11 0 -6 22 -9 49 -8 28 2 48 6 45 11
-3 4 13 8 35 8 l41 0 0 276 c0 171 4 283 10 295 9 17 22 19 99 19 84 0 88 -1
99 -25 6 -14 8 -25 4 -25 -5 0 -8 -126 -8 -280 1 -210 4 -280 13 -280 6 0 15
5 18 10 3 6 26 10 51 10 l44 0 0 283 c0 207 3 286 12 295 7 7 42 12 85 12 l73
0 0 55 c0 37 -4 55 -12 55 -9 0 -8 4 2 10 10 6 -58 10 -200 10 -226 0 -240 -3
-240 -45 0 -11 -9 -26 -21 -33 -12 -8 -18 -9 -14 -3 3 6 1 11 -4 11 -6 0 -11
16 -11 36 l0 35 -49 -3 c-26 -2 -53 -7 -58 -13z"/>
<path d="M3053 5492 l-173 -2 0 -265 c0 -189 -3 -265 -11 -265 -8 0 -7 -5 1
-15 10 -12 10 -19 2 -27 -7 -7 -8 -17 -2 -28 11 -20 2 -62 -11 -54 -10 6 -12
-27 -3 -51 5 -13 8 -14 15 -3 7 10 9 10 9 1 0 -7 9 -13 20 -13 11 0 20 5 20
10 0 6 9 10 20 10 11 0 20 -5 20 -11 0 -10 165 -7 235 4 17 3 40 6 53 6 19 1
22 6 22 41 0 22 5 40 10 40 6 0 10 11 10 25 l0 26 -127 -1 c-71 -1 -134 -1
-140 -1 -9 1 -13 24 -13 80 0 92 -2 91 123 91 l77 0 0 66 0 65 -87 -1 c-49 -1
-94 -1 -101 -1 -10 1 -12 20 -10 73 l3 73 85 1 c47 1 102 4 123 6 40 5 60 18
40 25 -8 3 -13 22 -13 48 0 26 -5 44 -12 46 -7 2 -91 3 -185 1z"/>
<path d="M11331 5343 c-1 -7 -10 -13 -21 -13 -11 0 -20 -5 -20 -12 0 -6 3 -8
7 -5 3 4 17 -9 30 -28 22 -33 23 -39 23 -265 0 -203 2 -230 15 -217 12 12 14
58 15 253 0 132 1 247 0 257 0 10 -8 17 -19 17 -11 0 -22 6 -24 13 -4 10 -6
10 -6 0z"/>
<path d="M2075 5299 c-7 -11 -7 -510 0 -517 10 -10 45 92 44 131 0 37 -1 39
-10 18 -15 -39 -22 -16 -11 36 18 77 26 243 13 243 -6 0 -11 14 -11 30 0 17 4
30 10 30 13 0 1 27 -15 34 -8 3 -17 1 -20 -5z"/>
<path d="M1658 4193 c-3 -311 -1 -413 7 -421 3 -3 15 0 28 7 16 9 22 22 24 49
1 28 -1 32 -7 17 -5 -11 -7 127 -7 307 l2 328 -22 0 -23 0 -2 -287z"/>
<path d="M3086 4464 c-4 -9 -6 -167 -6 -350 1 -324 2 -334 20 -334 19 0 20 10
20 350 0 292 -2 350 -14 350 -8 0 -17 -7 -20 -16z"/>
<path d="M5817 4474 c-4 -4 -7 -62 -7 -129 l0 -121 -33 -12 c-18 -7 -53 -12
-76 -12 -44 0 -71 -17 -71 -45 0 -9 -4 -13 -10 -10 -7 4 -10 -50 -10 -154 0
-96 4 -162 10 -166 6 -3 10 -14 10 -24 0 -24 34 -29 141 -23 l79 5 -2 345 c-3
329 -7 370 -31 346z m-76 -322 c13 2 27 8 31 13 5 6 8 5 8 -2 0 -7 7 -13 15
-13 13 0 15 -24 15 -159 l0 -158 -42 -8 c-36 -6 -39 -8 -23 -15 19 -8 18 -9
-4 -9 -14 -1 -36 12 -55 31 l-31 33 0 125 c0 95 3 124 13 123 6 -2 12 4 12 12
0 20 23 46 31 34 3 -5 16 -8 30 -7z"/>
<path d="M9450 4355 c0 -102 -3 -127 -15 -131 -8 -4 -12 -10 -9 -15 3 -5 -25
-9 -63 -9 -105 -1 -103 4 -103 -204 0 -103 4 -185 10 -197 10 -17 22 -19 120
-19 l110 0 -2 188 c0 113 -4 169 -8 142 l-7 -45 -1 42 c-1 23 3 45 8 48 11 7
14 282 4 309 -3 9 -15 16 -25 16 -18 0 -19 -9 -19 -125z m-55 -204 c28 -1 31
-5 43 -54 13 -58 15 -309 2 -267 -4 14 -8 20 -9 13 -1 -6 -11 -13 -23 -15 -13
-2 -22 -9 -20 -17 2 -10 -4 -12 -25 -6 -15 3 -29 11 -31 16 -2 5 -10 9 -18 9
-11 0 -14 29 -14 159 0 166 1 170 45 165 11 -1 34 -3 50 -3z"/>
<path d="M12140 4461 c0 -12 -5 -21 -11 -21 -7 0 -10 -36 -7 -110 l3 -110 -25
0 c-20 0 -22 -2 -10 -10 11 -7 -5 -10 -51 -10 -51 0 -68 -4 -73 -16 -3 -8 -10
-12 -16 -9 -7 4 -10 -58 -10 -181 0 -166 2 -188 18 -200 11 -9 50 -13 119 -14
l103 0 -3 347 c-2 322 -3 348 -19 351 -13 2 -18 -3 -18 -17z m-21 -315 c7 -5
6 -304 -1 -311 -3 -4 -15 -7 -58 -14 -3 -1 2 -6 10 -11 12 -8 9 -10 -11 -10
-15 0 -29 7 -33 15 -3 8 -12 15 -21 15 -13 0 -15 23 -15 163 0 92 4 156 9 149
7 -11 9 -11 14 1 4 11 17 14 53 11 26 -3 50 -6 53 -8z"/>
<path d="M12827 4473 c-4 -3 -7 -61 -7 -128 0 -81 -4 -125 -12 -133 -7 -7 -41
-12 -81 -12 -43 0 -66 -4 -62 -10 3 -5 0 -10 -7 -10 -28 0 -38 -53 -38 -202 0
-112 3 -148 13 -148 8 0 7 -4 -3 -10 -10 -6 -11 -10 -2 -10 6 0 12 -7 12 -15
0 -12 19 -15 110 -15 l110 0 0 350 c0 285 -2 350 -13 350 -8 0 -17 -3 -20 -7z
m-7 -483 l0 -160 -35 0 c-22 0 -38 -6 -44 -17 -9 -16 -12 -16 -34 9 -13 15
-27 25 -31 21 -3 -3 -6 60 -6 141 0 96 4 145 10 141 6 -3 10 1 10 9 0 13 13
16 65 16 l65 0 0 -160z"/>
<path d="M2530 4286 c0 -62 -1 -64 -29 -74 -16 -6 -32 -8 -35 -5 -3 4 -6 -9
-6 -28 0 -26 3 -30 10 -19 6 10 10 11 10 3 0 -7 7 -13 15 -13 10 0 15 -10 15
-30 0 -16 5 -30 11 -30 7 0 10 -44 9 -137 -3 -203 -10 -182 58 -176 60 6 97
23 49 23 -15 0 -36 9 -47 20 -18 18 -20 33 -20 175 0 117 3 155 13 155 8 0 8
3 -2 9 -11 7 -5 11 22 16 42 8 50 25 12 25 -14 0 -25 6 -25 13 0 8 -4 7 -10
-3 -7 -11 -10 6 -11 55 -1 39 -1 73 0 78 0 4 -8 7 -19 7 -18 0 -20 -7 -20 -64z"/>
<path d="M7340 4330 c0 -11 -6 -19 -12 -17 -9 1 -13 -12 -13 -43 0 -36 -4 -48
-22 -58 -30 -17 -32 -62 -3 -62 19 0 20 -7 20 -179 0 -177 0 -179 23 -185 36
-9 107 -7 107 4 0 6 -8 10 -18 10 -10 0 -27 10 -38 23 -17 19 -20 40 -23 122
-1 55 3 128 10 163 12 57 16 64 41 69 35 7 37 23 2 23 -14 0 -32 6 -40 14 -16
16 -19 86 -4 86 15 0 12 19 -4 36 -20 19 -26 18 -26 -6z"/>
<path d="M1970 4209 c11 -7 -7 -9 -63 -7 l-77 3 -2 -187 c-1 -104 -2 -198 -2
-210 -1 -16 6 -24 22 -26 l22 -3 0 179 c0 204 -5 192 86 192 l54 0 2 -162 c2
-221 2 -220 37 -211 18 5 20 16 21 208 1 186 -1 205 -17 213 -10 5 -24 7 -30
5 -7 -3 -13 0 -13 6 0 6 -12 11 -27 11 -22 0 -25 -2 -13 -11z"/>
<path d="M2172 4185 c-7 -9 -8 -15 -2 -15 5 0 10 -5 10 -11 0 -5 -4 -7 -10 -4
-6 4 -10 -15 -10 -51 0 -32 3 -54 6 -51 4 3 19 -7 34 -23 16 -17 32 -30 37
-30 5 0 15 -9 23 -20 8 -11 20 -20 28 -20 25 0 38 -25 41 -77 2 -50 1 -52 -26
-55 -15 -2 -40 -1 -55 1 -25 3 -28 7 -28 42 0 32 -3 39 -20 39 -17 0 -20 -7
-20 -44 0 -26 -5 -47 -12 -50 -10 -5 -10 -7 1 -12 11 -5 11 -8 0 -15 -10 -6
-8 -9 9 -9 12 0 22 -6 22 -12 0 -10 3 -9 9 1 7 11 9 11 14 0 4 -10 8 -11 14
-2 5 6 35 11 71 12 35 0 69 5 76 11 19 15 21 137 2 155 -8 8 -18 15 -23 15 -5
0 -15 9 -23 20 -8 11 -20 20 -28 20 -7 0 -15 7 -18 15 -3 8 -14 17 -25 20 -10
4 -19 13 -19 21 0 8 -7 14 -15 14 -11 0 -15 11 -15 39 l0 39 55 4 c30 1 55 -1
55 -5 0 -5 5 -5 10 -2 6 4 10 -8 10 -29 0 -36 11 -44 38 -27 9 5 12 25 10 57
l-3 49 -105 2 c-83 2 -108 -1 -118 -12z"/>
<path d="M2745 4187 c-5 -7 -11 -31 -12 -54 -3 -35 0 -43 15 -43 25 0 37 12
40 40 5 36 15 42 73 48 45 4 51 3 46 -12 -4 -9 -2 -16 4 -16 6 0 9 -26 8 -65
l-2 -65 -80 0 c-102 0 -106 -5 -107 -128 0 -112 10 -134 54 -121 17 5 66 9
108 9 l78 0 0 210 0 210 -107 0 c-72 -1 -111 -5 -118 -13z m175 -283 l0 -74
-37 -2 c-21 0 -42 -2 -48 -3 -5 -2 -17 -4 -25 -5 -8 -1 -1 -6 15 -10 28 -7 28
-8 5 -9 -43 -2 -60 30 -60 110 0 44 4 68 10 64 6 -3 10 -3 10 2 0 4 29 6 65 5
l65 -4 0 -74z"/>
<path d="M3250 4166 c0 -19 -6 -36 -12 -39 -10 -3 -10 -7 0 -20 15 -17 48 -19
50 -2 0 5 2 25 3 43 2 29 5 32 37 32 26 0 33 -3 28 -15 -4 -12 3 -15 29 -15
l35 0 0 -55 c0 -37 -4 -55 -12 -55 -9 0 -8 -4 2 -10 10 -7 -11 -10 -68 -10
-111 0 -114 -3 -111 -127 1 -70 6 -101 16 -108 7 -6 58 -9 118 -7 l105 3 0
210 0 209 -110 0 -110 0 0 -34z m133 -185 l37 -1 0 -75 0 -75 -39 0 c-42 0
-64 -15 -34 -23 10 -3 3 -5 -14 -6 -27 -1 -34 3 -39 25 -5 19 -9 22 -15 12 -5
-8 -9 9 -9 45 0 35 4 57 11 57 8 0 8 5 -1 15 -10 12 -8 16 11 24 13 4 31 7 39
5 8 -1 32 -3 53 -3z"/>
<path d="M3595 4190 c3 -5 1 -10 -5 -10 -7 0 -10 -61 -8 -197 l3 -198 108 -3
107 -3 1 43 2 43 7 -35 c6 -30 8 -27 9 25 0 42 -2 56 -9 45 -6 -10 -10 -11
-10 -2 0 26 -26 10 -36 -23 -6 -19 -7 -32 -2 -29 4 3 8 0 8 -5 0 -6 -22 -11
-52 -11 -38 0 -49 -3 -38 -10 12 -8 9 -10 -12 -10 -17 0 -27 5 -25 13 1 6 -4
11 -10 10 -10 -2 -13 34 -13 157 0 138 2 160 16 160 8 0 12 5 9 10 -4 6 6 10
22 9 25 0 26 -1 8 -9 -15 -6 -6 -9 33 -9 50 -1 52 -2 52 -29 0 -27 15 -52 32
-52 4 0 8 7 8 16 0 8 5 12 10 9 6 -4 10 6 9 22 0 25 -1 26 -9 8 -8 -19 -9 -19
-9 3 -1 12 4 22 9 22 15 0 12 19 -4 36 -17 17 -222 21 -211 4z"/>
<path d="M3930 3990 c0 -203 1 -210 20 -210 19 0 20 7 20 210 0 203 -1 210
-20 210 -19 0 -20 -7 -20 -210z"/>
<path d="M4087 4193 c-4 -4 -7 -98 -7 -210 l1 -203 107 0 c59 0 113 4 120 8 9
7 12 55 10 208 l-3 199 -111 3 c-60 1 -113 -1 -117 -5z m193 -201 c0 -120 -3
-159 -12 -160 -7 -1 -33 -3 -58 -5 -32 -3 -44 -8 -42 -18 1 -9 -2 -8 -11 4 -8
9 -19 17 -26 17 -8 0 -11 47 -11 159 l0 158 80 2 80 2 0 -159z"/>
<path d="M4430 3990 c0 -203 1 -210 20 -210 19 0 20 7 20 185 l0 185 65 0 65
0 1 -32 2 -33 6 35 c6 31 8 27 15 -35 4 -39 6 -118 4 -178 -2 -87 -6 -107 -18
-107 -25 0 11 -20 37 -20 l22 0 -2 208 -2 207 -117 3 -118 3 0 -211z"/>
<path d="M4779 4018 c-1 -101 -1 -194 -1 -207 2 -27 17 -40 41 -36 9 2 53 4
99 4 l82 1 0 55 c0 52 -1 55 -25 55 -21 0 -25 -5 -25 -30 0 -26 -4 -30 -26
-30 -22 0 -25 -2 -14 -15 11 -13 6 -15 -33 -15 -25 0 -49 5 -53 12 -4 7 -3 8
4 4 7 -4 12 -3 12 3 0 5 -4 11 -9 13 -8 2 -15 86 -12 136 1 8 22 12 70 12 46
0 71 4 74 13 4 9 6 9 6 -1 1 -10 4 -10 16 2 11 11 15 39 15 110 l0 96 -110 0
-110 0 -1 -182z m165 137 c11 -39 6 -115 -6 -115 -9 0 -8 -4 2 -10 11 -7 -5
-10 -52 -10 l-68 0 0 61 c0 86 9 99 70 96 40 -2 50 -6 54 -22z"/>
<path d="M5117 4193 c-11 -10 -8 -123 3 -123 6 0 10 -5 10 -11 0 -5 -6 -7 -12
-3 -7 4 -4 -2 6 -14 11 -12 23 -22 29 -22 5 0 17 -8 26 -18 9 -9 28 -23 44
-31 15 -8 27 -18 27 -23 0 -4 6 -8 14 -8 9 0 16 -14 18 -37 8 -65 2 -73 -53
-73 -27 0 -49 -4 -49 -10 0 -5 15 -7 33 -5 28 4 29 4 7 -4 -38 -14 -50 -13
-50 4 0 8 -4 15 -10 15 -5 0 -10 18 -10 40 0 33 -3 40 -20 40 -18 0 -20 -7
-20 -65 l0 -65 110 0 110 0 0 90 c0 81 -2 90 -19 90 -10 0 -37 18 -60 40 -22
22 -47 39 -54 37 -6 -1 -11 3 -10 10 2 6 -6 15 -17 18 -16 5 -20 15 -20 46 0
36 2 39 28 40 16 1 20 3 10 6 -10 2 -18 8 -18 13 0 4 9 6 20 3 11 -3 20 -10
20 -15 0 -6 18 -8 40 -6 l41 4 -6 -33 c-4 -25 -1 -33 10 -33 8 0 15 -6 15 -12
0 -9 4 -8 10 2 5 8 10 39 10 68 l0 52 -103 0 c-57 0 -107 -3 -110 -7z"/>
<path d="M5972 4188 c-8 -8 -12 -68 -12 -204 0 -166 2 -193 16 -198 9 -3 56
-6 106 -6 104 0 118 8 118 69 0 34 -3 41 -20 41 -16 0 -20 -7 -20 -30 0 -26
-4 -30 -26 -30 -14 0 -23 -4 -20 -9 3 -5 -8 -11 -25 -15 -43 -8 -43 -8 -68 13
-19 17 -22 28 -20 90 2 79 -3 75 87 71 29 -1 66 4 82 12 30 13 30 13 30 98 0
54 -5 91 -12 98 -16 16 -200 16 -216 0z m164 -23 c-3 -9 0 -15 9 -15 11 0 15
-12 15 -45 0 -63 -21 -85 -81 -85 -74 0 -79 4 -79 67 0 83 9 93 81 93 50 0 60
-3 55 -15z"/>
<path d="M6482 4124 c3 -76 3 -77 38 -95 19 -11 34 -21 33 -24 -2 -3 -2 -4 0
-2 1 1 16 -13 33 -30 17 -18 40 -33 51 -33 17 0 20 -7 22 -55 2 -59 2 -58 -58
-55 -28 1 -33 -1 -27 -15 4 -12 1 -15 -12 -13 -9 2 -16 10 -14 16 1 7 -2 12
-8 12 -6 0 -10 18 -10 40 0 36 -2 40 -25 40 -24 0 -25 -2 -25 -65 l0 -66 108
3 107 3 3 72 c3 71 2 73 -32 108 -20 19 -38 35 -41 35 -6 0 -22 12 -66 51 -22
20 -29 35 -29 62 l0 35 65 4 65 3 0 -32 c0 -26 4 -33 20 -33 18 0 20 7 20 55
l0 55 -110 0 -111 0 3 -76z"/>
<path d="M6810 3990 c0 -203 1 -210 20 -210 19 0 20 7 20 210 0 203 -1 210
-20 210 -19 0 -20 -7 -20 -210z"/>
<path d="M6990 4190 c0 -5 -7 -10 -15 -10 -12 0 -15 -13 -15 -55 0 -44 3 -55
16 -55 10 0 14 -6 10 -15 -3 -8 0 -15 7 -15 7 0 18 -9 25 -20 7 -11 17 -20 22
-20 6 0 19 -8 29 -17 11 -10 31 -26 45 -36 22 -15 26 -25 26 -67 l0 -49 -42
-3 c-28 -2 -42 -7 -40 -15 3 -20 -11 -15 -32 8 -10 13 -16 31 -13 45 6 31 -5
44 -31 37 -18 -4 -22 -12 -22 -48 0 -75 0 -75 116 -75 88 0 104 2 104 16 0 8
4 12 10 9 13 -8 11 80 -3 123 -6 17 -16 32 -23 32 -6 0 -25 14 -42 30 -18 17
-34 30 -38 30 -10 0 -34 28 -34 39 0 6 -4 11 -10 11 -15 0 -21 41 -11 80 5 19
9 27 10 17 1 -16 8 -18 50 -15 30 2 53 -2 60 -9 7 -8 8 -13 1 -13 -5 0 -10 -9
-10 -20 0 -15 7 -20 28 -20 26 0 29 4 30 33 1 17 -4 42 -10 55 -11 20 -18 22
-105 22 -55 0 -93 -4 -93 -10z"/>
<path d="M7535 4178 c-3 -13 -4 -106 -3 -208 l3 -185 108 -3 c88 -2 107 0 107
12 0 8 5 16 11 18 18 6 2 78 -16 78 -15 0 -18 -8 -18 -42 0 -10 -4 -15 -8 -12
-5 3 -9 0 -9 -6 0 -6 -4 -8 -10 -5 -5 3 -10 -1 -10 -10 0 -13 -9 -16 -47 -13
-32 2 -47 7 -45 16 1 6 -2 12 -8 12 -6 0 -10 32 -10 75 0 82 -4 79 73 77 15 0
27 5 27 11 0 7 4 6 10 -3 9 -13 10 -13 10 0 0 13 1 13 10 0 6 -10 10 -11 10
-2 0 6 3 11 8 10 4 0 15 2 25 7 15 6 16 10 5 16 -10 7 -10 9 0 9 6 0 12 5 12
11 0 5 -4 7 -10 4 -5 -3 -10 1 -10 10 0 9 5 13 10 10 6 -4 10 10 10 35 0 30
-3 39 -12 34 -8 -5 -8 -1 1 10 12 14 12 19 2 25 -7 5 -11 12 -9 17 1 5 -45 10
-104 12 -105 3 -108 2 -113 -20z m179 -22 c10 -15 12 -27 6 -31 -6 -3 -10 -11
-10 -16 0 -6 5 -7 10 -4 6 3 10 1 10 -4 0 -6 -4 -11 -10 -11 -5 0 -10 -10 -9
-22 0 -22 1 -22 9 -3 8 18 9 18 9 2 2 -35 -25 -48 -89 -46 l-60 2 0 64 c0 39
4 63 11 63 6 0 9 7 5 15 -4 12 5 15 48 15 46 0 56 -4 70 -24z"/>
<path d="M7880 4166 c0 -19 -6 -37 -12 -40 -10 -5 -10 -7 0 -12 16 -7 18 -304
1 -304 -6 0 -4 -7 5 -15 8 -8 24 -15 35 -15 20 0 21 5 21 185 l0 185 64 0 64
0 6 -157 c3 -87 5 -169 3 -183 -1 -17 4 -26 15 -28 16 -3 18 12 20 180 l3 183
73 3 72 3 0 -186 0 -185 25 0 25 0 0 210 0 210 -210 0 -210 0 0 -34z"/>
<path d="M8421 4186 c-7 -8 -11 -33 -10 -55 2 -32 7 -41 21 -41 13 0 18 8 18
30 0 17 5 30 10 30 6 0 10 7 10 16 0 12 11 15 55 13 38 -2 55 -7 55 -16 0 -7
5 -13 10 -13 6 0 10 -7 10 -15 0 -8 -4 -15 -10 -15 -5 0 -10 -9 -10 -20 0 -11
5 -20 10 -20 15 0 12 -29 -4 -46 -10 -9 -37 -14 -83 -14 -40 0 -74 -5 -81 -12
-8 -8 -12 -49 -12 -120 l0 -108 120 0 120 0 0 201 c0 115 -4 198 -9 195 -5 -3
-11 1 -15 9 -8 21 -188 22 -205 1z m132 -205 c40 -1 47 -4 47 -21 0 -11 -6
-20 -12 -21 -10 0 -10 -2 0 -6 6 -2 12 -9 12 -14 0 -6 -6 -7 -12 -3 -10 6 -10
4 -3 -7 23 -31 3 -79 -34 -79 -14 0 -37 -4 -51 -8 -22 -6 -19 -8 20 -13 l45
-6 -47 -1 c-37 -2 -48 2 -48 13 0 8 -4 15 -10 15 -6 0 -10 31 -10 74 0 75 6
87 40 80 8 -1 36 -3 63 -3z"/>
<path d="M8759 4168 c-1 -24 -3 -27 -6 -10 -2 12 -8 22 -13 22 -12 0 -6 -80 6
-88 5 -4 10 -16 12 -26 5 -25 26 -46 49 -46 15 0 16 -2 3 -10 -13 -9 -13 -10
0 -10 9 0 22 -9 30 -20 8 -11 22 -20 32 -20 10 0 18 -4 18 -10 0 -5 7 -10 15
-10 9 0 12 -6 9 -15 -4 -8 -1 -15 5 -15 6 0 11 -13 11 -30 0 -16 -4 -30 -9
-30 -5 0 -13 -10 -16 -21 -4 -12 -10 -17 -14 -12 -3 6 -17 9 -31 7 -14 -1 -35
0 -48 3 -20 5 -23 11 -20 41 2 28 -1 37 -14 40 -15 3 -18 -4 -19 -40 0 -30 -3
-37 -8 -24 -5 12 -10 16 -14 9 -8 -13 1 -42 19 -60 17 -17 185 -18 202 -1 17
17 16 136 -2 154 -8 8 -20 14 -26 14 -6 0 -8 5 -5 10 3 6 -1 10 -10 10 -9 0
-13 5 -10 10 3 6 1 10 -5 10 -18 0 -80 44 -80 58 0 6 -4 12 -10 12 -16 0 -12
70 5 86 8 9 15 11 15 5 0 -6 21 -11 50 -11 l50 0 -5 -30 c-5 -27 -3 -30 20
-30 23 0 25 4 25 43 0 24 -5 48 -12 55 -8 8 -46 12 -105 12 l-93 0 -1 -32z"/>
<path d="M9602 4167 c-7 -18 -12 -40 -11 -48 1 -8 4 -3 8 11 6 17 8 5 8 -38 0
-35 -4 -65 -9 -68 -4 -3 -8 -51 -8 -107 0 -70 3 -97 10 -87 7 11 10 7 10 -17
l0 -33 110 0 110 0 0 55 c0 52 -1 55 -25 55 -21 0 -25 -5 -25 -30 0 -25 -4
-30 -24 -30 -33 0 -43 -17 -14 -23 13 -3 -3 -5 -34 -4 l-58 0 0 94 c0 54 4 92
9 89 5 -4 12 0 14 6 4 10 6 10 6 1 1 -16 121 -18 121 -3 0 6 7 10 15 10 12 0
15 18 15 100 l0 100 -108 0 -108 0 -12 -33z m173 -67 l0 -75 -62 -3 -63 -3 0
81 0 81 63 -3 62 -3 0 -75z"/>
<path d="M10123 4185 c-15 -17 -17 -115 -3 -115 6 0 10 -5 10 -11 0 -11 24
-39 34 -39 4 0 20 -13 38 -30 17 -16 37 -30 44 -30 8 0 14 -7 14 -16 0 -8 5
-12 10 -9 6 4 10 -15 10 -49 l0 -56 -34 0 c-19 0 -38 -4 -41 -10 -4 -6 -13 -5
-25 2 -14 9 -16 14 -7 20 8 5 6 8 -7 8 -15 0 -17 5 -12 30 5 27 3 30 -20 30
-24 0 -25 -2 -23 -65 l2 -65 109 0 c89 0 108 3 108 15 0 8 5 15 10 15 6 0 10
25 10 56 0 39 -3 53 -12 48 -8 -5 -9 -2 -5 9 3 10 2 17 -4 17 -6 0 -7 5 -4 10
3 6 -2 10 -13 10 -17 0 -112 80 -112 94 0 4 -11 18 -25 32 -14 14 -25 30 -25
37 0 7 4 6 10 -3 8 -13 11 -11 16 8 5 19 13 22 55 22 48 0 49 -1 49 -30 0 -27
3 -30 33 -30 31 0 32 2 33 40 1 22 -2 40 -7 40 -5 0 -9 7 -9 15 0 21 -189 21
-207 0z"/>
<path d="M10452 4185 c-9 -11 -12 -63 -12 -205 2 -222 -12 -203 140 -198 l95
3 3 53 c3 50 2 52 -22 52 -22 0 -26 -5 -26 -30 0 -23 -5 -30 -19 -30 -11 0
-21 -5 -23 -11 -2 -5 -22 -13 -46 -16 -42 -6 -42 -5 -42 26 0 19 -4 30 -10 26
-6 -4 -10 7 -9 27 1 31 1 32 9 8 l8 -25 1 27 c1 15 -4 30 -10 34 -8 4 -7 9 2
15 11 7 11 9 1 9 -11 0 -10 3 1 14 9 10 39 16 86 17 39 1 71 6 71 11 0 4 7 8
15 8 12 0 15 18 15 100 l0 100 -107 0 c-82 -1 -111 -4 -121 -15z m161 -23 c-2
-7 2 -12 7 -12 6 0 10 -26 10 -59 0 -67 -4 -71 -81 -71 -47 0 -49 1 -49 28 0
21 -2 24 -10 12 -5 -8 -10 -10 -10 -4 0 6 3 14 7 17 4 4 8 26 11 49 2 24 8 46
14 49 18 12 103 4 101 -9z"/>
<path d="M10802 4185 c-9 -11 -12 -61 -12 -193 2 -203 5 -212 80 -212 21 0 42
-4 45 -10 3 -5 16 -10 28 -10 16 0 22 -6 23 -25 1 -14 5 -37 8 -51 5 -17 3
-23 -4 -19 -5 3 -10 1 -10 -4 0 -7 -26 -11 -65 -11 l-65 0 0 29 c0 17 -4 33
-10 36 -5 3 -10 -1 -10 -9 0 -9 -4 -16 -10 -16 -13 0 -13 -36 0 -61 9 -17 22
-19 106 -19 69 0 99 4 110 14 11 12 14 65 14 295 l0 281 -107 0 c-82 -1 -111
-4 -121 -15z m108 -14 c0 -5 -8 -12 -17 -14 -10 -3 1 -5 25 -6 33 -1 42 -5 43
-18 0 -17 1 -17 7 -1 4 10 7 -54 7 -142 0 -88 -2 -155 -4 -149 -2 8 -5 8 -11
-1 -10 -17 -102 -18 -108 -1 -4 11 -6 11 -13 0 -5 -8 -9 48 -9 136 l0 150 32
27 c35 29 48 34 48 19z"/>
<path d="M11138 4133 c-4 -209 1 -346 14 -353 7 -4 61 -5 119 -2 l107 5 1 208
2 209 -30 0 c-17 0 -32 -4 -32 -10 -1 -5 -3 -14 -4 -20 -1 -5 -3 -84 -4 -175
l-1 -165 -65 0 -65 0 0 185 c0 178 -1 185 -20 185 -18 0 -20 -7 -22 -67z"/>
<path d="M11490 4174 c0 -20 -4 -25 -16 -20 -14 5 -15 0 -10 -31 3 -21 8 -58
10 -83 l4 -45 -8 40 c-4 25 -7 -9 -7 -95 0 -95 2 -119 7 -80 l7 55 1 -67 c2
-66 3 -68 27 -68 l26 0 -1 173 c0 94 -1 178 0 185 0 8 18 12 55 12 l55 0 1
-32 c1 -18 1 -36 0 -40 0 -5 8 -8 18 -8 23 0 27 16 23 81 l-4 49 -94 0 -94 0
0 -26z"/>
<path d="M11789 4193 c0 -5 0 -92 -1 -195 0 -111 -4 -188 -10 -188 -5 0 -3 -7
6 -15 16 -17 56 -20 56 -5 0 6 -4 10 -10 10 -5 0 -10 5 -10 11 0 5 5 7 10 4 7
-4 10 62 10 189 l0 196 -25 0 c-14 0 -25 -3 -26 -7z"/>
<path d="M12290 4179 c0 -11 -5 -29 -10 -40 -7 -13 -7 -19 0 -19 5 0 10 -7 10
-15 0 -9 9 -15 25 -15 21 0 25 5 25 30 0 17 5 30 10 30 6 0 10 7 10 15 0 11
11 15 38 15 35 -1 36 -2 18 -15 -19 -15 -19 -15 2 -15 13 0 22 6 22 16 0 9 6
14 13 12 8 -3 13 -30 14 -81 l1 -77 -89 0 c-89 0 -89 0 -89 -26 0 -14 -4 -23
-10 -19 -6 4 -10 -27 -10 -87 0 -78 3 -95 18 -103 9 -6 63 -9 120 -7 l102 3 0
210 0 209 -110 0 c-105 0 -110 -1 -110 -21z m180 -274 l0 -74 -32 -3 c-20 -2
-32 -8 -30 -15 1 -7 -5 -13 -13 -13 -9 0 -12 6 -8 16 4 12 0 15 -18 12 -23 -3
-24 -1 -27 74 l-3 77 53 3 c79 4 78 5 78 -77z"/>
</g>
</svg>
